<mxfile host="app.diagrams.net" modified="2021-12-03T06:06:13.373Z" agent="5.0 (Macintosh; Intel Mac OS X 10_15_6) AppleWebKit/605.1.15 (KHTML, like Gecko) Version/15.1 Safari/605.1.15" etag="GcaFEUN3spmy2kG-A9Ae" version="15.8.9" type="github">
  <diagram id="C5c32epGwQvgHvZ3GROu" name="Page-1">
    <mxGraphModel dx="321" dy="266" grid="1" gridSize="10" guides="1" tooltips="1" connect="1" arrows="1" fold="1" page="1" pageScale="1" pageWidth="850" pageHeight="1100" math="0" shadow="0">
      <root>
        <mxCell id="0" />
        <mxCell id="1" parent="0" />
        <mxCell id="iaEKwFwizDIPbEBIRWRv-1" value="" style="rounded=0;whiteSpace=wrap;html=1;" vertex="1" parent="1">
          <mxGeometry width="160" height="440" as="geometry" />
        </mxCell>
        <mxCell id="iaEKwFwizDIPbEBIRWRv-287" value="" style="group" vertex="1" connectable="0" parent="1">
          <mxGeometry x="10" width="10" height="440" as="geometry" />
        </mxCell>
        <mxCell id="iaEKwFwizDIPbEBIRWRv-288" value="" style="rounded=0;whiteSpace=wrap;html=1;fillColor=#f5f5f5;fontColor=#333333;strokeColor=#666666;direction=south;" vertex="1" parent="iaEKwFwizDIPbEBIRWRv-287">
          <mxGeometry width="10" height="20" as="geometry" />
        </mxCell>
        <mxCell id="iaEKwFwizDIPbEBIRWRv-289" value="" style="rounded=0;whiteSpace=wrap;html=1;fillColor=#f5f5f5;fontColor=#333333;strokeColor=#666666;direction=south;" vertex="1" parent="iaEKwFwizDIPbEBIRWRv-287">
          <mxGeometry y="20" width="10" height="20" as="geometry" />
        </mxCell>
        <mxCell id="iaEKwFwizDIPbEBIRWRv-290" value="" style="rounded=0;whiteSpace=wrap;html=1;fillColor=#f5f5f5;fontColor=#333333;strokeColor=#666666;direction=south;" vertex="1" parent="iaEKwFwizDIPbEBIRWRv-287">
          <mxGeometry y="40" width="10" height="20" as="geometry" />
        </mxCell>
        <mxCell id="iaEKwFwizDIPbEBIRWRv-291" value="" style="rounded=0;whiteSpace=wrap;html=1;fillColor=#f5f5f5;fontColor=#333333;strokeColor=#666666;direction=south;" vertex="1" parent="iaEKwFwizDIPbEBIRWRv-287">
          <mxGeometry y="60" width="10" height="20" as="geometry" />
        </mxCell>
        <mxCell id="iaEKwFwizDIPbEBIRWRv-292" value="" style="rounded=0;whiteSpace=wrap;html=1;fillColor=#f5f5f5;fontColor=#333333;strokeColor=#666666;direction=south;" vertex="1" parent="iaEKwFwizDIPbEBIRWRv-287">
          <mxGeometry y="80" width="10" height="20" as="geometry" />
        </mxCell>
        <mxCell id="iaEKwFwizDIPbEBIRWRv-293" value="" style="rounded=0;whiteSpace=wrap;html=1;fillColor=#f5f5f5;fontColor=#333333;strokeColor=#666666;direction=south;" vertex="1" parent="iaEKwFwizDIPbEBIRWRv-287">
          <mxGeometry y="100" width="10" height="20" as="geometry" />
        </mxCell>
        <mxCell id="iaEKwFwizDIPbEBIRWRv-294" value="" style="rounded=0;whiteSpace=wrap;html=1;fillColor=#f5f5f5;fontColor=#333333;strokeColor=#666666;direction=south;" vertex="1" parent="iaEKwFwizDIPbEBIRWRv-287">
          <mxGeometry y="120" width="10" height="20" as="geometry" />
        </mxCell>
        <mxCell id="iaEKwFwizDIPbEBIRWRv-295" value="" style="rounded=0;whiteSpace=wrap;html=1;fillColor=#f5f5f5;fontColor=#333333;strokeColor=#666666;direction=south;" vertex="1" parent="iaEKwFwizDIPbEBIRWRv-287">
          <mxGeometry y="140" width="10" height="20" as="geometry" />
        </mxCell>
        <mxCell id="iaEKwFwizDIPbEBIRWRv-296" value="" style="rounded=0;whiteSpace=wrap;html=1;fillColor=#f5f5f5;fontColor=#333333;strokeColor=#666666;direction=south;" vertex="1" parent="iaEKwFwizDIPbEBIRWRv-287">
          <mxGeometry y="160" width="10" height="20" as="geometry" />
        </mxCell>
        <mxCell id="iaEKwFwizDIPbEBIRWRv-297" value="" style="rounded=0;whiteSpace=wrap;html=1;fillColor=#f5f5f5;fontColor=#333333;strokeColor=#666666;direction=south;" vertex="1" parent="iaEKwFwizDIPbEBIRWRv-287">
          <mxGeometry y="180" width="10" height="20" as="geometry" />
        </mxCell>
        <mxCell id="iaEKwFwizDIPbEBIRWRv-298" value="" style="rounded=0;whiteSpace=wrap;html=1;fillColor=#f5f5f5;fontColor=#333333;strokeColor=#666666;direction=south;" vertex="1" parent="iaEKwFwizDIPbEBIRWRv-287">
          <mxGeometry y="200" width="10" height="20" as="geometry" />
        </mxCell>
        <mxCell id="iaEKwFwizDIPbEBIRWRv-299" value="" style="rounded=0;whiteSpace=wrap;html=1;fillColor=#f5f5f5;fontColor=#333333;strokeColor=#666666;direction=south;" vertex="1" parent="iaEKwFwizDIPbEBIRWRv-287">
          <mxGeometry y="220" width="10" height="20" as="geometry" />
        </mxCell>
        <mxCell id="iaEKwFwizDIPbEBIRWRv-300" value="" style="rounded=0;whiteSpace=wrap;html=1;fillColor=#f5f5f5;fontColor=#333333;strokeColor=#666666;direction=south;" vertex="1" parent="iaEKwFwizDIPbEBIRWRv-287">
          <mxGeometry y="240" width="10" height="20" as="geometry" />
        </mxCell>
        <mxCell id="iaEKwFwizDIPbEBIRWRv-301" value="" style="rounded=0;whiteSpace=wrap;html=1;fillColor=#f5f5f5;fontColor=#333333;strokeColor=#666666;direction=south;" vertex="1" parent="iaEKwFwizDIPbEBIRWRv-287">
          <mxGeometry y="260" width="10" height="20" as="geometry" />
        </mxCell>
        <mxCell id="iaEKwFwizDIPbEBIRWRv-302" value="" style="rounded=0;whiteSpace=wrap;html=1;fillColor=#f5f5f5;fontColor=#333333;strokeColor=#666666;direction=south;" vertex="1" parent="iaEKwFwizDIPbEBIRWRv-287">
          <mxGeometry y="280" width="10" height="20" as="geometry" />
        </mxCell>
        <mxCell id="iaEKwFwizDIPbEBIRWRv-303" value="" style="rounded=0;whiteSpace=wrap;html=1;fillColor=#f5f5f5;fontColor=#333333;strokeColor=#666666;direction=south;" vertex="1" parent="iaEKwFwizDIPbEBIRWRv-287">
          <mxGeometry y="300" width="10" height="20" as="geometry" />
        </mxCell>
        <mxCell id="iaEKwFwizDIPbEBIRWRv-304" value="" style="rounded=0;whiteSpace=wrap;html=1;fillColor=#f5f5f5;fontColor=#333333;strokeColor=#666666;direction=south;" vertex="1" parent="iaEKwFwizDIPbEBIRWRv-287">
          <mxGeometry y="320" width="10" height="20" as="geometry" />
        </mxCell>
        <mxCell id="iaEKwFwizDIPbEBIRWRv-305" value="" style="rounded=0;whiteSpace=wrap;html=1;fillColor=#f5f5f5;fontColor=#333333;strokeColor=#666666;direction=south;" vertex="1" parent="iaEKwFwizDIPbEBIRWRv-287">
          <mxGeometry y="340" width="10" height="20" as="geometry" />
        </mxCell>
        <mxCell id="iaEKwFwizDIPbEBIRWRv-306" value="" style="rounded=0;whiteSpace=wrap;html=1;fillColor=#f5f5f5;fontColor=#333333;strokeColor=#666666;direction=south;" vertex="1" parent="iaEKwFwizDIPbEBIRWRv-287">
          <mxGeometry y="360" width="10" height="20" as="geometry" />
        </mxCell>
        <mxCell id="iaEKwFwizDIPbEBIRWRv-307" value="" style="rounded=0;whiteSpace=wrap;html=1;fillColor=#f5f5f5;fontColor=#333333;strokeColor=#666666;direction=south;" vertex="1" parent="iaEKwFwizDIPbEBIRWRv-287">
          <mxGeometry y="380" width="10" height="20" as="geometry" />
        </mxCell>
        <mxCell id="iaEKwFwizDIPbEBIRWRv-308" value="" style="rounded=0;whiteSpace=wrap;html=1;fillColor=#f5f5f5;fontColor=#333333;strokeColor=#666666;direction=south;" vertex="1" parent="iaEKwFwizDIPbEBIRWRv-287">
          <mxGeometry y="400" width="10" height="20" as="geometry" />
        </mxCell>
        <mxCell id="iaEKwFwizDIPbEBIRWRv-309" value="" style="rounded=0;whiteSpace=wrap;html=1;fillColor=#f5f5f5;fontColor=#333333;strokeColor=#666666;direction=south;" vertex="1" parent="iaEKwFwizDIPbEBIRWRv-287">
          <mxGeometry y="420" width="10" height="20" as="geometry" />
        </mxCell>
        <mxCell id="iaEKwFwizDIPbEBIRWRv-262" value="" style="rounded=0;whiteSpace=wrap;html=1;strokeColor=none;fillColor=#ffe6cc;" vertex="1" parent="1">
          <mxGeometry x="140" y="67.5" width="50" height="120" as="geometry" />
        </mxCell>
        <mxCell id="iaEKwFwizDIPbEBIRWRv-656" value="" style="group" vertex="1" connectable="0" parent="1">
          <mxGeometry x="10" y="30" width="10" height="320" as="geometry" />
        </mxCell>
        <mxCell id="iaEKwFwizDIPbEBIRWRv-634" value="" style="rounded=0;whiteSpace=wrap;html=1;fillColor=#f5f5f5;fontColor=#333333;strokeColor=#666666;direction=south;" vertex="1" parent="iaEKwFwizDIPbEBIRWRv-656">
          <mxGeometry width="10" height="20" as="geometry" />
        </mxCell>
        <mxCell id="iaEKwFwizDIPbEBIRWRv-635" value="" style="rounded=0;whiteSpace=wrap;html=1;fillColor=#f5f5f5;fontColor=#333333;strokeColor=#666666;direction=south;" vertex="1" parent="iaEKwFwizDIPbEBIRWRv-656">
          <mxGeometry y="20" width="10" height="20" as="geometry" />
        </mxCell>
        <mxCell id="iaEKwFwizDIPbEBIRWRv-636" value="" style="rounded=0;whiteSpace=wrap;html=1;fillColor=#f5f5f5;fontColor=#333333;strokeColor=#666666;direction=south;" vertex="1" parent="iaEKwFwizDIPbEBIRWRv-656">
          <mxGeometry y="40" width="10" height="20" as="geometry" />
        </mxCell>
        <mxCell id="iaEKwFwizDIPbEBIRWRv-637" value="" style="rounded=0;whiteSpace=wrap;html=1;fillColor=#f5f5f5;fontColor=#333333;strokeColor=#666666;direction=south;" vertex="1" parent="iaEKwFwizDIPbEBIRWRv-656">
          <mxGeometry y="60" width="10" height="20" as="geometry" />
        </mxCell>
        <mxCell id="iaEKwFwizDIPbEBIRWRv-638" value="" style="rounded=0;whiteSpace=wrap;html=1;fillColor=#f5f5f5;fontColor=#333333;strokeColor=#666666;direction=south;" vertex="1" parent="iaEKwFwizDIPbEBIRWRv-656">
          <mxGeometry y="80" width="10" height="20" as="geometry" />
        </mxCell>
        <mxCell id="iaEKwFwizDIPbEBIRWRv-639" value="" style="rounded=0;whiteSpace=wrap;html=1;fillColor=#f5f5f5;fontColor=#333333;strokeColor=#666666;direction=south;" vertex="1" parent="iaEKwFwizDIPbEBIRWRv-656">
          <mxGeometry y="100" width="10" height="20" as="geometry" />
        </mxCell>
        <mxCell id="iaEKwFwizDIPbEBIRWRv-640" value="" style="rounded=0;whiteSpace=wrap;html=1;fillColor=#f5f5f5;fontColor=#333333;strokeColor=#666666;direction=south;" vertex="1" parent="iaEKwFwizDIPbEBIRWRv-656">
          <mxGeometry y="120" width="10" height="20" as="geometry" />
        </mxCell>
        <mxCell id="iaEKwFwizDIPbEBIRWRv-641" value="" style="rounded=0;whiteSpace=wrap;html=1;fillColor=#f5f5f5;fontColor=#333333;strokeColor=#666666;direction=south;" vertex="1" parent="iaEKwFwizDIPbEBIRWRv-656">
          <mxGeometry y="140" width="10" height="20" as="geometry" />
        </mxCell>
        <mxCell id="iaEKwFwizDIPbEBIRWRv-642" value="" style="rounded=0;whiteSpace=wrap;html=1;fillColor=#f5f5f5;fontColor=#333333;strokeColor=#666666;direction=south;" vertex="1" parent="iaEKwFwizDIPbEBIRWRv-656">
          <mxGeometry y="160" width="10" height="20" as="geometry" />
        </mxCell>
        <mxCell id="iaEKwFwizDIPbEBIRWRv-643" value="" style="rounded=0;whiteSpace=wrap;html=1;fillColor=#f5f5f5;fontColor=#333333;strokeColor=#666666;direction=south;" vertex="1" parent="iaEKwFwizDIPbEBIRWRv-656">
          <mxGeometry y="180" width="10" height="20" as="geometry" />
        </mxCell>
        <mxCell id="iaEKwFwizDIPbEBIRWRv-644" value="" style="rounded=0;whiteSpace=wrap;html=1;fillColor=#f5f5f5;fontColor=#333333;strokeColor=#666666;direction=south;" vertex="1" parent="iaEKwFwizDIPbEBIRWRv-656">
          <mxGeometry y="200" width="10" height="20" as="geometry" />
        </mxCell>
        <mxCell id="iaEKwFwizDIPbEBIRWRv-645" value="" style="rounded=0;whiteSpace=wrap;html=1;fillColor=#f5f5f5;fontColor=#333333;strokeColor=#666666;direction=south;" vertex="1" parent="iaEKwFwizDIPbEBIRWRv-656">
          <mxGeometry y="220" width="10" height="20" as="geometry" />
        </mxCell>
        <mxCell id="iaEKwFwizDIPbEBIRWRv-646" value="" style="rounded=0;whiteSpace=wrap;html=1;fillColor=#f5f5f5;fontColor=#333333;strokeColor=#666666;direction=south;" vertex="1" parent="iaEKwFwizDIPbEBIRWRv-656">
          <mxGeometry y="240" width="10" height="20" as="geometry" />
        </mxCell>
        <mxCell id="iaEKwFwizDIPbEBIRWRv-647" value="" style="rounded=0;whiteSpace=wrap;html=1;fillColor=#f5f5f5;fontColor=#333333;strokeColor=#666666;direction=south;" vertex="1" parent="iaEKwFwizDIPbEBIRWRv-656">
          <mxGeometry y="260" width="10" height="20" as="geometry" />
        </mxCell>
        <mxCell id="iaEKwFwizDIPbEBIRWRv-648" value="" style="rounded=0;whiteSpace=wrap;html=1;fillColor=#f5f5f5;fontColor=#333333;strokeColor=#666666;direction=south;" vertex="1" parent="iaEKwFwizDIPbEBIRWRv-656">
          <mxGeometry y="280" width="10" height="20" as="geometry" />
        </mxCell>
        <mxCell id="iaEKwFwizDIPbEBIRWRv-649" value="" style="rounded=0;whiteSpace=wrap;html=1;fillColor=#f5f5f5;fontColor=#333333;strokeColor=#666666;direction=south;" vertex="1" parent="iaEKwFwizDIPbEBIRWRv-656">
          <mxGeometry y="300" width="10" height="20" as="geometry" />
        </mxCell>
        <mxCell id="iaEKwFwizDIPbEBIRWRv-657" value="" style="group" vertex="1" connectable="0" parent="1">
          <mxGeometry x="110" y="30" width="10" height="320" as="geometry" />
        </mxCell>
        <mxCell id="iaEKwFwizDIPbEBIRWRv-658" value="" style="rounded=0;whiteSpace=wrap;html=1;fillColor=#f5f5f5;fontColor=#333333;strokeColor=#666666;direction=south;" vertex="1" parent="iaEKwFwizDIPbEBIRWRv-657">
          <mxGeometry width="10" height="20" as="geometry" />
        </mxCell>
        <mxCell id="iaEKwFwizDIPbEBIRWRv-659" value="" style="rounded=0;whiteSpace=wrap;html=1;fillColor=#f5f5f5;fontColor=#333333;strokeColor=#666666;direction=south;" vertex="1" parent="iaEKwFwizDIPbEBIRWRv-657">
          <mxGeometry y="20" width="10" height="20" as="geometry" />
        </mxCell>
        <mxCell id="iaEKwFwizDIPbEBIRWRv-660" value="" style="rounded=0;whiteSpace=wrap;html=1;fillColor=#f5f5f5;fontColor=#333333;strokeColor=#666666;direction=south;" vertex="1" parent="iaEKwFwizDIPbEBIRWRv-657">
          <mxGeometry y="40" width="10" height="20" as="geometry" />
        </mxCell>
        <mxCell id="iaEKwFwizDIPbEBIRWRv-661" value="" style="rounded=0;whiteSpace=wrap;html=1;fillColor=#f5f5f5;fontColor=#333333;strokeColor=#666666;direction=south;" vertex="1" parent="iaEKwFwizDIPbEBIRWRv-657">
          <mxGeometry y="60" width="10" height="20" as="geometry" />
        </mxCell>
        <mxCell id="iaEKwFwizDIPbEBIRWRv-662" value="" style="rounded=0;whiteSpace=wrap;html=1;fillColor=#f5f5f5;fontColor=#333333;strokeColor=#666666;direction=south;" vertex="1" parent="iaEKwFwizDIPbEBIRWRv-657">
          <mxGeometry y="80" width="10" height="20" as="geometry" />
        </mxCell>
        <mxCell id="iaEKwFwizDIPbEBIRWRv-663" value="" style="rounded=0;whiteSpace=wrap;html=1;fillColor=#f5f5f5;fontColor=#333333;strokeColor=#666666;direction=south;" vertex="1" parent="iaEKwFwizDIPbEBIRWRv-657">
          <mxGeometry y="100" width="10" height="20" as="geometry" />
        </mxCell>
        <mxCell id="iaEKwFwizDIPbEBIRWRv-664" value="" style="rounded=0;whiteSpace=wrap;html=1;fillColor=#f5f5f5;fontColor=#333333;strokeColor=#666666;direction=south;" vertex="1" parent="iaEKwFwizDIPbEBIRWRv-657">
          <mxGeometry y="120" width="10" height="20" as="geometry" />
        </mxCell>
        <mxCell id="iaEKwFwizDIPbEBIRWRv-665" value="" style="rounded=0;whiteSpace=wrap;html=1;fillColor=#f5f5f5;fontColor=#333333;strokeColor=#666666;direction=south;" vertex="1" parent="iaEKwFwizDIPbEBIRWRv-657">
          <mxGeometry y="140" width="10" height="20" as="geometry" />
        </mxCell>
        <mxCell id="iaEKwFwizDIPbEBIRWRv-666" value="" style="rounded=0;whiteSpace=wrap;html=1;fillColor=#f5f5f5;fontColor=#333333;strokeColor=#666666;direction=south;" vertex="1" parent="iaEKwFwizDIPbEBIRWRv-657">
          <mxGeometry y="160" width="10" height="20" as="geometry" />
        </mxCell>
        <mxCell id="iaEKwFwizDIPbEBIRWRv-667" value="" style="rounded=0;whiteSpace=wrap;html=1;fillColor=#f5f5f5;fontColor=#333333;strokeColor=#666666;direction=south;" vertex="1" parent="iaEKwFwizDIPbEBIRWRv-657">
          <mxGeometry y="180" width="10" height="20" as="geometry" />
        </mxCell>
        <mxCell id="iaEKwFwizDIPbEBIRWRv-668" value="" style="rounded=0;whiteSpace=wrap;html=1;fillColor=#f5f5f5;fontColor=#333333;strokeColor=#666666;direction=south;" vertex="1" parent="iaEKwFwizDIPbEBIRWRv-657">
          <mxGeometry y="200" width="10" height="20" as="geometry" />
        </mxCell>
        <mxCell id="iaEKwFwizDIPbEBIRWRv-669" value="" style="rounded=0;whiteSpace=wrap;html=1;fillColor=#f5f5f5;fontColor=#333333;strokeColor=#666666;direction=south;" vertex="1" parent="iaEKwFwizDIPbEBIRWRv-657">
          <mxGeometry y="220" width="10" height="20" as="geometry" />
        </mxCell>
        <mxCell id="iaEKwFwizDIPbEBIRWRv-670" value="" style="rounded=0;whiteSpace=wrap;html=1;fillColor=#f5f5f5;fontColor=#333333;strokeColor=#666666;direction=south;" vertex="1" parent="iaEKwFwizDIPbEBIRWRv-657">
          <mxGeometry y="240" width="10" height="20" as="geometry" />
        </mxCell>
        <mxCell id="iaEKwFwizDIPbEBIRWRv-671" value="" style="rounded=0;whiteSpace=wrap;html=1;fillColor=#f5f5f5;fontColor=#333333;strokeColor=#666666;direction=south;" vertex="1" parent="iaEKwFwizDIPbEBIRWRv-657">
          <mxGeometry y="260" width="10" height="20" as="geometry" />
        </mxCell>
        <mxCell id="iaEKwFwizDIPbEBIRWRv-672" value="" style="rounded=0;whiteSpace=wrap;html=1;fillColor=#f5f5f5;fontColor=#333333;strokeColor=#666666;direction=south;" vertex="1" parent="iaEKwFwizDIPbEBIRWRv-657">
          <mxGeometry y="280" width="10" height="20" as="geometry" />
        </mxCell>
        <mxCell id="iaEKwFwizDIPbEBIRWRv-673" value="" style="rounded=0;whiteSpace=wrap;html=1;fillColor=#f5f5f5;fontColor=#333333;strokeColor=#666666;direction=south;" vertex="1" parent="iaEKwFwizDIPbEBIRWRv-657">
          <mxGeometry y="300" width="10" height="20" as="geometry" />
        </mxCell>
        <mxCell id="iaEKwFwizDIPbEBIRWRv-702" value="" style="group" vertex="1" connectable="0" parent="1">
          <mxGeometry width="160" height="10" as="geometry" />
        </mxCell>
        <mxCell id="iaEKwFwizDIPbEBIRWRv-694" value="" style="rounded=0;whiteSpace=wrap;html=1;fillColor=#f5f5f5;fontColor=#333333;strokeColor=#666666;" vertex="1" parent="iaEKwFwizDIPbEBIRWRv-702">
          <mxGeometry width="20" height="10" as="geometry" />
        </mxCell>
        <mxCell id="iaEKwFwizDIPbEBIRWRv-695" value="" style="rounded=0;whiteSpace=wrap;html=1;fillColor=#f5f5f5;fontColor=#333333;strokeColor=#666666;" vertex="1" parent="iaEKwFwizDIPbEBIRWRv-702">
          <mxGeometry x="20" width="20" height="10" as="geometry" />
        </mxCell>
        <mxCell id="iaEKwFwizDIPbEBIRWRv-696" value="" style="rounded=0;whiteSpace=wrap;html=1;fillColor=#f5f5f5;fontColor=#333333;strokeColor=#666666;" vertex="1" parent="iaEKwFwizDIPbEBIRWRv-702">
          <mxGeometry x="40" width="20" height="10" as="geometry" />
        </mxCell>
        <mxCell id="iaEKwFwizDIPbEBIRWRv-697" value="" style="rounded=0;whiteSpace=wrap;html=1;fillColor=#f5f5f5;fontColor=#333333;strokeColor=#666666;" vertex="1" parent="iaEKwFwizDIPbEBIRWRv-702">
          <mxGeometry x="60" width="20" height="10" as="geometry" />
        </mxCell>
        <mxCell id="iaEKwFwizDIPbEBIRWRv-698" value="" style="rounded=0;whiteSpace=wrap;html=1;fillColor=#f5f5f5;fontColor=#333333;strokeColor=#666666;" vertex="1" parent="iaEKwFwizDIPbEBIRWRv-702">
          <mxGeometry x="80" width="20" height="10" as="geometry" />
        </mxCell>
        <mxCell id="iaEKwFwizDIPbEBIRWRv-699" value="" style="rounded=0;whiteSpace=wrap;html=1;fillColor=#f5f5f5;fontColor=#333333;strokeColor=#666666;" vertex="1" parent="iaEKwFwizDIPbEBIRWRv-702">
          <mxGeometry x="100" width="20" height="10" as="geometry" />
        </mxCell>
        <mxCell id="iaEKwFwizDIPbEBIRWRv-700" value="" style="rounded=0;whiteSpace=wrap;html=1;fillColor=#f5f5f5;fontColor=#333333;strokeColor=#666666;" vertex="1" parent="iaEKwFwizDIPbEBIRWRv-702">
          <mxGeometry x="120" width="20" height="10" as="geometry" />
        </mxCell>
        <mxCell id="iaEKwFwizDIPbEBIRWRv-701" value="" style="rounded=0;whiteSpace=wrap;html=1;fillColor=#f5f5f5;fontColor=#333333;strokeColor=#666666;" vertex="1" parent="iaEKwFwizDIPbEBIRWRv-702">
          <mxGeometry x="140" width="20" height="10" as="geometry" />
        </mxCell>
        <mxCell id="iaEKwFwizDIPbEBIRWRv-703" value="" style="group" vertex="1" connectable="0" parent="1">
          <mxGeometry y="430" width="160" height="10" as="geometry" />
        </mxCell>
        <mxCell id="iaEKwFwizDIPbEBIRWRv-704" value="" style="rounded=0;whiteSpace=wrap;html=1;fillColor=#f5f5f5;fontColor=#333333;strokeColor=#666666;" vertex="1" parent="iaEKwFwizDIPbEBIRWRv-703">
          <mxGeometry width="20" height="10" as="geometry" />
        </mxCell>
        <mxCell id="iaEKwFwizDIPbEBIRWRv-705" value="" style="rounded=0;whiteSpace=wrap;html=1;fillColor=#f5f5f5;fontColor=#333333;strokeColor=#666666;" vertex="1" parent="iaEKwFwizDIPbEBIRWRv-703">
          <mxGeometry x="20" width="20" height="10" as="geometry" />
        </mxCell>
        <mxCell id="iaEKwFwizDIPbEBIRWRv-706" value="" style="rounded=0;whiteSpace=wrap;html=1;fillColor=#f5f5f5;fontColor=#333333;strokeColor=#666666;" vertex="1" parent="iaEKwFwizDIPbEBIRWRv-703">
          <mxGeometry x="40" width="20" height="10" as="geometry" />
        </mxCell>
        <mxCell id="iaEKwFwizDIPbEBIRWRv-707" value="" style="rounded=0;whiteSpace=wrap;html=1;fillColor=#f5f5f5;fontColor=#333333;strokeColor=#666666;" vertex="1" parent="iaEKwFwizDIPbEBIRWRv-703">
          <mxGeometry x="60" width="20" height="10" as="geometry" />
        </mxCell>
        <mxCell id="iaEKwFwizDIPbEBIRWRv-708" value="" style="rounded=0;whiteSpace=wrap;html=1;fillColor=#f5f5f5;fontColor=#333333;strokeColor=#666666;" vertex="1" parent="iaEKwFwizDIPbEBIRWRv-703">
          <mxGeometry x="80" width="20" height="10" as="geometry" />
        </mxCell>
        <mxCell id="iaEKwFwizDIPbEBIRWRv-709" value="" style="rounded=0;whiteSpace=wrap;html=1;fillColor=#f5f5f5;fontColor=#333333;strokeColor=#666666;" vertex="1" parent="iaEKwFwizDIPbEBIRWRv-703">
          <mxGeometry x="100" width="20" height="10" as="geometry" />
        </mxCell>
        <mxCell id="iaEKwFwizDIPbEBIRWRv-710" value="" style="rounded=0;whiteSpace=wrap;html=1;fillColor=#f5f5f5;fontColor=#333333;strokeColor=#666666;" vertex="1" parent="iaEKwFwizDIPbEBIRWRv-703">
          <mxGeometry x="120" width="20" height="10" as="geometry" />
        </mxCell>
        <mxCell id="iaEKwFwizDIPbEBIRWRv-711" value="" style="rounded=0;whiteSpace=wrap;html=1;fillColor=#f5f5f5;fontColor=#333333;strokeColor=#666666;" vertex="1" parent="iaEKwFwizDIPbEBIRWRv-703">
          <mxGeometry x="140" width="20" height="10" as="geometry" />
        </mxCell>
        <mxCell id="iaEKwFwizDIPbEBIRWRv-712" value="" style="group" vertex="1" connectable="0" parent="1">
          <mxGeometry y="10" width="10" height="420" as="geometry" />
        </mxCell>
        <mxCell id="iaEKwFwizDIPbEBIRWRv-51" value="" style="rounded=0;whiteSpace=wrap;html=1;fillColor=#f5f5f5;fontColor=#333333;strokeColor=#666666;direction=south;" vertex="1" parent="iaEKwFwizDIPbEBIRWRv-712">
          <mxGeometry width="10" height="20" as="geometry" />
        </mxCell>
        <mxCell id="iaEKwFwizDIPbEBIRWRv-52" value="" style="rounded=0;whiteSpace=wrap;html=1;fillColor=#f5f5f5;fontColor=#333333;strokeColor=#666666;direction=south;" vertex="1" parent="iaEKwFwizDIPbEBIRWRv-712">
          <mxGeometry y="20" width="10" height="20" as="geometry" />
        </mxCell>
        <mxCell id="iaEKwFwizDIPbEBIRWRv-53" value="" style="rounded=0;whiteSpace=wrap;html=1;fillColor=#f5f5f5;fontColor=#333333;strokeColor=#666666;direction=south;" vertex="1" parent="iaEKwFwizDIPbEBIRWRv-712">
          <mxGeometry y="40" width="10" height="20" as="geometry" />
        </mxCell>
        <mxCell id="iaEKwFwizDIPbEBIRWRv-54" value="" style="rounded=0;whiteSpace=wrap;html=1;fillColor=#f5f5f5;fontColor=#333333;strokeColor=#666666;direction=south;" vertex="1" parent="iaEKwFwizDIPbEBIRWRv-712">
          <mxGeometry y="60" width="10" height="20" as="geometry" />
        </mxCell>
        <mxCell id="iaEKwFwizDIPbEBIRWRv-55" value="" style="rounded=0;whiteSpace=wrap;html=1;fillColor=#f5f5f5;fontColor=#333333;strokeColor=#666666;direction=south;" vertex="1" parent="iaEKwFwizDIPbEBIRWRv-712">
          <mxGeometry y="80" width="10" height="20" as="geometry" />
        </mxCell>
        <mxCell id="iaEKwFwizDIPbEBIRWRv-56" value="" style="rounded=0;whiteSpace=wrap;html=1;fillColor=#f5f5f5;fontColor=#333333;strokeColor=#666666;direction=south;" vertex="1" parent="iaEKwFwizDIPbEBIRWRv-712">
          <mxGeometry y="100" width="10" height="20" as="geometry" />
        </mxCell>
        <mxCell id="iaEKwFwizDIPbEBIRWRv-57" value="" style="rounded=0;whiteSpace=wrap;html=1;fillColor=#f5f5f5;fontColor=#333333;strokeColor=#666666;direction=south;" vertex="1" parent="iaEKwFwizDIPbEBIRWRv-712">
          <mxGeometry y="120" width="10" height="20" as="geometry" />
        </mxCell>
        <mxCell id="iaEKwFwizDIPbEBIRWRv-58" value="" style="rounded=0;whiteSpace=wrap;html=1;fillColor=#f5f5f5;fontColor=#333333;strokeColor=#666666;direction=south;" vertex="1" parent="iaEKwFwizDIPbEBIRWRv-712">
          <mxGeometry y="140" width="10" height="20" as="geometry" />
        </mxCell>
        <mxCell id="iaEKwFwizDIPbEBIRWRv-59" value="" style="rounded=0;whiteSpace=wrap;html=1;fillColor=#f5f5f5;fontColor=#333333;strokeColor=#666666;direction=south;" vertex="1" parent="iaEKwFwizDIPbEBIRWRv-712">
          <mxGeometry y="160" width="10" height="20" as="geometry" />
        </mxCell>
        <mxCell id="iaEKwFwizDIPbEBIRWRv-60" value="" style="rounded=0;whiteSpace=wrap;html=1;fillColor=#f5f5f5;fontColor=#333333;strokeColor=#666666;direction=south;" vertex="1" parent="iaEKwFwizDIPbEBIRWRv-712">
          <mxGeometry y="180" width="10" height="20" as="geometry" />
        </mxCell>
        <mxCell id="iaEKwFwizDIPbEBIRWRv-61" value="" style="rounded=0;whiteSpace=wrap;html=1;fillColor=#f5f5f5;fontColor=#333333;strokeColor=#666666;direction=south;" vertex="1" parent="iaEKwFwizDIPbEBIRWRv-712">
          <mxGeometry y="200" width="10" height="20" as="geometry" />
        </mxCell>
        <mxCell id="iaEKwFwizDIPbEBIRWRv-62" value="" style="rounded=0;whiteSpace=wrap;html=1;fillColor=#f5f5f5;fontColor=#333333;strokeColor=#666666;direction=south;" vertex="1" parent="iaEKwFwizDIPbEBIRWRv-712">
          <mxGeometry y="220" width="10" height="20" as="geometry" />
        </mxCell>
        <mxCell id="iaEKwFwizDIPbEBIRWRv-63" value="" style="rounded=0;whiteSpace=wrap;html=1;fillColor=#f5f5f5;fontColor=#333333;strokeColor=#666666;direction=south;" vertex="1" parent="iaEKwFwizDIPbEBIRWRv-712">
          <mxGeometry y="240" width="10" height="20" as="geometry" />
        </mxCell>
        <mxCell id="iaEKwFwizDIPbEBIRWRv-64" value="" style="rounded=0;whiteSpace=wrap;html=1;fillColor=#f5f5f5;fontColor=#333333;strokeColor=#666666;direction=south;" vertex="1" parent="iaEKwFwizDIPbEBIRWRv-712">
          <mxGeometry y="260" width="10" height="20" as="geometry" />
        </mxCell>
        <mxCell id="iaEKwFwizDIPbEBIRWRv-65" value="" style="rounded=0;whiteSpace=wrap;html=1;fillColor=#f5f5f5;fontColor=#333333;strokeColor=#666666;direction=south;" vertex="1" parent="iaEKwFwizDIPbEBIRWRv-712">
          <mxGeometry y="280" width="10" height="20" as="geometry" />
        </mxCell>
        <mxCell id="iaEKwFwizDIPbEBIRWRv-66" value="" style="rounded=0;whiteSpace=wrap;html=1;fillColor=#f5f5f5;fontColor=#333333;strokeColor=#666666;direction=south;" vertex="1" parent="iaEKwFwizDIPbEBIRWRv-712">
          <mxGeometry y="300" width="10" height="20" as="geometry" />
        </mxCell>
        <mxCell id="iaEKwFwizDIPbEBIRWRv-67" value="" style="rounded=0;whiteSpace=wrap;html=1;fillColor=#f5f5f5;fontColor=#333333;strokeColor=#666666;direction=south;" vertex="1" parent="iaEKwFwizDIPbEBIRWRv-712">
          <mxGeometry y="320" width="10" height="20" as="geometry" />
        </mxCell>
        <mxCell id="iaEKwFwizDIPbEBIRWRv-68" value="" style="rounded=0;whiteSpace=wrap;html=1;fillColor=#f5f5f5;fontColor=#333333;strokeColor=#666666;direction=south;" vertex="1" parent="iaEKwFwizDIPbEBIRWRv-712">
          <mxGeometry y="340" width="10" height="20" as="geometry" />
        </mxCell>
        <mxCell id="iaEKwFwizDIPbEBIRWRv-69" value="" style="rounded=0;whiteSpace=wrap;html=1;fillColor=#f5f5f5;fontColor=#333333;strokeColor=#666666;direction=south;" vertex="1" parent="iaEKwFwizDIPbEBIRWRv-712">
          <mxGeometry y="360" width="10" height="20" as="geometry" />
        </mxCell>
        <mxCell id="iaEKwFwizDIPbEBIRWRv-70" value="" style="rounded=0;whiteSpace=wrap;html=1;fillColor=#f5f5f5;fontColor=#333333;strokeColor=#666666;direction=south;" vertex="1" parent="iaEKwFwizDIPbEBIRWRv-712">
          <mxGeometry y="380" width="10" height="20" as="geometry" />
        </mxCell>
        <mxCell id="iaEKwFwizDIPbEBIRWRv-71" value="" style="rounded=0;whiteSpace=wrap;html=1;fillColor=#f5f5f5;fontColor=#333333;strokeColor=#666666;direction=south;" vertex="1" parent="iaEKwFwizDIPbEBIRWRv-712">
          <mxGeometry y="400" width="10" height="20" as="geometry" />
        </mxCell>
        <mxCell id="iaEKwFwizDIPbEBIRWRv-749" value="" style="group" vertex="1" connectable="0" parent="1">
          <mxGeometry x="250" y="77.5" width="40" height="20" as="geometry" />
        </mxCell>
        <mxCell id="iaEKwFwizDIPbEBIRWRv-745" value="" style="rounded=0;whiteSpace=wrap;html=1;fillColor=#f8cecc;strokeColor=#b85450;" vertex="1" parent="iaEKwFwizDIPbEBIRWRv-749">
          <mxGeometry width="10" height="20" as="geometry" />
        </mxCell>
        <mxCell id="iaEKwFwizDIPbEBIRWRv-746" value="" style="rounded=0;whiteSpace=wrap;html=1;fillColor=#f8cecc;strokeColor=#b85450;" vertex="1" parent="iaEKwFwizDIPbEBIRWRv-749">
          <mxGeometry x="10" width="10" height="20" as="geometry" />
        </mxCell>
        <mxCell id="iaEKwFwizDIPbEBIRWRv-747" value="" style="rounded=0;whiteSpace=wrap;html=1;fillColor=#f8cecc;strokeColor=#b85450;" vertex="1" parent="iaEKwFwizDIPbEBIRWRv-749">
          <mxGeometry x="20" width="10" height="20" as="geometry" />
        </mxCell>
        <mxCell id="iaEKwFwizDIPbEBIRWRv-748" value="" style="rounded=0;whiteSpace=wrap;html=1;fillColor=#f8cecc;strokeColor=#b85450;" vertex="1" parent="iaEKwFwizDIPbEBIRWRv-749">
          <mxGeometry x="30" width="10" height="20" as="geometry" />
        </mxCell>
        <mxCell id="iaEKwFwizDIPbEBIRWRv-750" value="" style="group" vertex="1" connectable="0" parent="1">
          <mxGeometry x="200" y="77.5" width="40" height="100" as="geometry" />
        </mxCell>
        <mxCell id="iaEKwFwizDIPbEBIRWRv-716" value="" style="group" vertex="1" connectable="0" parent="iaEKwFwizDIPbEBIRWRv-750">
          <mxGeometry width="40" height="10" as="geometry" />
        </mxCell>
        <mxCell id="iaEKwFwizDIPbEBIRWRv-714" value="" style="rounded=0;whiteSpace=wrap;html=1;fillColor=#f8cecc;strokeColor=#b85450;" vertex="1" parent="iaEKwFwizDIPbEBIRWRv-716">
          <mxGeometry width="20" height="10" as="geometry" />
        </mxCell>
        <mxCell id="iaEKwFwizDIPbEBIRWRv-715" value="" style="rounded=0;whiteSpace=wrap;html=1;fillColor=#f8cecc;strokeColor=#b85450;" vertex="1" parent="iaEKwFwizDIPbEBIRWRv-716">
          <mxGeometry x="20" width="20" height="10" as="geometry" />
        </mxCell>
        <mxCell id="iaEKwFwizDIPbEBIRWRv-717" value="" style="group" vertex="1" connectable="0" parent="iaEKwFwizDIPbEBIRWRv-750">
          <mxGeometry y="10" width="40" height="10" as="geometry" />
        </mxCell>
        <mxCell id="iaEKwFwizDIPbEBIRWRv-718" value="" style="rounded=0;whiteSpace=wrap;html=1;fillColor=#f8cecc;strokeColor=#b85450;" vertex="1" parent="iaEKwFwizDIPbEBIRWRv-717">
          <mxGeometry width="20" height="10" as="geometry" />
        </mxCell>
        <mxCell id="iaEKwFwizDIPbEBIRWRv-719" value="" style="rounded=0;whiteSpace=wrap;html=1;fillColor=#f8cecc;strokeColor=#b85450;" vertex="1" parent="iaEKwFwizDIPbEBIRWRv-717">
          <mxGeometry x="20" width="20" height="10" as="geometry" />
        </mxCell>
        <mxCell id="iaEKwFwizDIPbEBIRWRv-720" value="" style="group" vertex="1" connectable="0" parent="iaEKwFwizDIPbEBIRWRv-750">
          <mxGeometry y="20" width="40" height="10" as="geometry" />
        </mxCell>
        <mxCell id="iaEKwFwizDIPbEBIRWRv-721" value="" style="rounded=0;whiteSpace=wrap;html=1;fillColor=#f8cecc;strokeColor=#b85450;" vertex="1" parent="iaEKwFwizDIPbEBIRWRv-720">
          <mxGeometry width="20" height="10" as="geometry" />
        </mxCell>
        <mxCell id="iaEKwFwizDIPbEBIRWRv-722" value="" style="rounded=0;whiteSpace=wrap;html=1;fillColor=#f8cecc;strokeColor=#b85450;" vertex="1" parent="iaEKwFwizDIPbEBIRWRv-720">
          <mxGeometry x="20" width="20" height="10" as="geometry" />
        </mxCell>
        <mxCell id="iaEKwFwizDIPbEBIRWRv-723" value="" style="group" vertex="1" connectable="0" parent="iaEKwFwizDIPbEBIRWRv-750">
          <mxGeometry y="30" width="40" height="10" as="geometry" />
        </mxCell>
        <mxCell id="iaEKwFwizDIPbEBIRWRv-724" value="" style="rounded=0;whiteSpace=wrap;html=1;fillColor=#f8cecc;strokeColor=#b85450;" vertex="1" parent="iaEKwFwizDIPbEBIRWRv-723">
          <mxGeometry width="20" height="10" as="geometry" />
        </mxCell>
        <mxCell id="iaEKwFwizDIPbEBIRWRv-725" value="" style="rounded=0;whiteSpace=wrap;html=1;fillColor=#f8cecc;strokeColor=#b85450;" vertex="1" parent="iaEKwFwizDIPbEBIRWRv-723">
          <mxGeometry x="20" width="20" height="10" as="geometry" />
        </mxCell>
        <mxCell id="iaEKwFwizDIPbEBIRWRv-726" value="" style="group" vertex="1" connectable="0" parent="iaEKwFwizDIPbEBIRWRv-750">
          <mxGeometry y="40" width="40" height="10" as="geometry" />
        </mxCell>
        <mxCell id="iaEKwFwizDIPbEBIRWRv-727" value="" style="rounded=0;whiteSpace=wrap;html=1;fillColor=#f8cecc;strokeColor=#b85450;" vertex="1" parent="iaEKwFwizDIPbEBIRWRv-726">
          <mxGeometry width="20" height="10" as="geometry" />
        </mxCell>
        <mxCell id="iaEKwFwizDIPbEBIRWRv-728" value="" style="rounded=0;whiteSpace=wrap;html=1;fillColor=#f8cecc;strokeColor=#b85450;" vertex="1" parent="iaEKwFwizDIPbEBIRWRv-726">
          <mxGeometry x="20" width="20" height="10" as="geometry" />
        </mxCell>
        <mxCell id="iaEKwFwizDIPbEBIRWRv-729" value="" style="group" vertex="1" connectable="0" parent="iaEKwFwizDIPbEBIRWRv-750">
          <mxGeometry y="50" width="40" height="10" as="geometry" />
        </mxCell>
        <mxCell id="iaEKwFwizDIPbEBIRWRv-730" value="" style="rounded=0;whiteSpace=wrap;html=1;fillColor=#f8cecc;strokeColor=#b85450;" vertex="1" parent="iaEKwFwizDIPbEBIRWRv-729">
          <mxGeometry width="20" height="10" as="geometry" />
        </mxCell>
        <mxCell id="iaEKwFwizDIPbEBIRWRv-731" value="" style="rounded=0;whiteSpace=wrap;html=1;fillColor=#f8cecc;strokeColor=#b85450;" vertex="1" parent="iaEKwFwizDIPbEBIRWRv-729">
          <mxGeometry x="20" width="20" height="10" as="geometry" />
        </mxCell>
        <mxCell id="iaEKwFwizDIPbEBIRWRv-732" value="" style="group" vertex="1" connectable="0" parent="iaEKwFwizDIPbEBIRWRv-750">
          <mxGeometry y="60" width="40" height="10" as="geometry" />
        </mxCell>
        <mxCell id="iaEKwFwizDIPbEBIRWRv-733" value="" style="rounded=0;whiteSpace=wrap;html=1;fillColor=#f8cecc;strokeColor=#b85450;" vertex="1" parent="iaEKwFwizDIPbEBIRWRv-732">
          <mxGeometry width="20" height="10" as="geometry" />
        </mxCell>
        <mxCell id="iaEKwFwizDIPbEBIRWRv-734" value="" style="rounded=0;whiteSpace=wrap;html=1;fillColor=#f8cecc;strokeColor=#b85450;" vertex="1" parent="iaEKwFwizDIPbEBIRWRv-732">
          <mxGeometry x="20" width="20" height="10" as="geometry" />
        </mxCell>
        <mxCell id="iaEKwFwizDIPbEBIRWRv-735" value="" style="group" vertex="1" connectable="0" parent="iaEKwFwizDIPbEBIRWRv-750">
          <mxGeometry y="70" width="40" height="10" as="geometry" />
        </mxCell>
        <mxCell id="iaEKwFwizDIPbEBIRWRv-736" value="" style="rounded=0;whiteSpace=wrap;html=1;fillColor=#f8cecc;strokeColor=#b85450;" vertex="1" parent="iaEKwFwizDIPbEBIRWRv-735">
          <mxGeometry width="20" height="10" as="geometry" />
        </mxCell>
        <mxCell id="iaEKwFwizDIPbEBIRWRv-737" value="" style="rounded=0;whiteSpace=wrap;html=1;fillColor=#f8cecc;strokeColor=#b85450;" vertex="1" parent="iaEKwFwizDIPbEBIRWRv-735">
          <mxGeometry x="20" width="20" height="10" as="geometry" />
        </mxCell>
        <mxCell id="iaEKwFwizDIPbEBIRWRv-738" value="" style="group" vertex="1" connectable="0" parent="iaEKwFwizDIPbEBIRWRv-750">
          <mxGeometry y="80" width="40" height="10" as="geometry" />
        </mxCell>
        <mxCell id="iaEKwFwizDIPbEBIRWRv-739" value="" style="rounded=0;whiteSpace=wrap;html=1;fillColor=#f8cecc;strokeColor=#b85450;" vertex="1" parent="iaEKwFwizDIPbEBIRWRv-738">
          <mxGeometry width="20" height="10" as="geometry" />
        </mxCell>
        <mxCell id="iaEKwFwizDIPbEBIRWRv-740" value="" style="rounded=0;whiteSpace=wrap;html=1;fillColor=#f8cecc;strokeColor=#b85450;" vertex="1" parent="iaEKwFwizDIPbEBIRWRv-738">
          <mxGeometry x="20" width="20" height="10" as="geometry" />
        </mxCell>
        <mxCell id="iaEKwFwizDIPbEBIRWRv-741" value="" style="group" vertex="1" connectable="0" parent="iaEKwFwizDIPbEBIRWRv-750">
          <mxGeometry y="90" width="40" height="10" as="geometry" />
        </mxCell>
        <mxCell id="iaEKwFwizDIPbEBIRWRv-742" value="" style="rounded=0;whiteSpace=wrap;html=1;fillColor=#f8cecc;strokeColor=#b85450;" vertex="1" parent="iaEKwFwizDIPbEBIRWRv-741">
          <mxGeometry width="20" height="10" as="geometry" />
        </mxCell>
        <mxCell id="iaEKwFwizDIPbEBIRWRv-743" value="" style="rounded=0;whiteSpace=wrap;html=1;fillColor=#f8cecc;strokeColor=#b85450;" vertex="1" parent="iaEKwFwizDIPbEBIRWRv-741">
          <mxGeometry x="20" width="20" height="10" as="geometry" />
        </mxCell>
        <mxCell id="iaEKwFwizDIPbEBIRWRv-751" value="" style="group" vertex="1" connectable="0" parent="1">
          <mxGeometry x="250" y="97.5" width="40" height="20" as="geometry" />
        </mxCell>
        <mxCell id="iaEKwFwizDIPbEBIRWRv-752" value="" style="rounded=0;whiteSpace=wrap;html=1;fillColor=#f8cecc;strokeColor=#b85450;" vertex="1" parent="iaEKwFwizDIPbEBIRWRv-751">
          <mxGeometry width="10" height="20" as="geometry" />
        </mxCell>
        <mxCell id="iaEKwFwizDIPbEBIRWRv-753" value="" style="rounded=0;whiteSpace=wrap;html=1;fillColor=#f8cecc;strokeColor=#b85450;" vertex="1" parent="iaEKwFwizDIPbEBIRWRv-751">
          <mxGeometry x="10" width="10" height="20" as="geometry" />
        </mxCell>
        <mxCell id="iaEKwFwizDIPbEBIRWRv-754" value="" style="rounded=0;whiteSpace=wrap;html=1;fillColor=#f8cecc;strokeColor=#b85450;" vertex="1" parent="iaEKwFwizDIPbEBIRWRv-751">
          <mxGeometry x="20" width="10" height="20" as="geometry" />
        </mxCell>
        <mxCell id="iaEKwFwizDIPbEBIRWRv-755" value="" style="rounded=0;whiteSpace=wrap;html=1;fillColor=#f8cecc;strokeColor=#b85450;" vertex="1" parent="iaEKwFwizDIPbEBIRWRv-751">
          <mxGeometry x="30" width="10" height="20" as="geometry" />
        </mxCell>
        <mxCell id="iaEKwFwizDIPbEBIRWRv-756" value="" style="group" vertex="1" connectable="0" parent="1">
          <mxGeometry x="250" y="117.5" width="40" height="20" as="geometry" />
        </mxCell>
        <mxCell id="iaEKwFwizDIPbEBIRWRv-757" value="" style="rounded=0;whiteSpace=wrap;html=1;fillColor=#f8cecc;strokeColor=#b85450;" vertex="1" parent="iaEKwFwizDIPbEBIRWRv-756">
          <mxGeometry width="10" height="20" as="geometry" />
        </mxCell>
        <mxCell id="iaEKwFwizDIPbEBIRWRv-758" value="" style="rounded=0;whiteSpace=wrap;html=1;fillColor=#f8cecc;strokeColor=#b85450;" vertex="1" parent="iaEKwFwizDIPbEBIRWRv-756">
          <mxGeometry x="10" width="10" height="20" as="geometry" />
        </mxCell>
        <mxCell id="iaEKwFwizDIPbEBIRWRv-759" value="" style="rounded=0;whiteSpace=wrap;html=1;fillColor=#f8cecc;strokeColor=#b85450;" vertex="1" parent="iaEKwFwizDIPbEBIRWRv-756">
          <mxGeometry x="20" width="10" height="20" as="geometry" />
        </mxCell>
        <mxCell id="iaEKwFwizDIPbEBIRWRv-760" value="" style="rounded=0;whiteSpace=wrap;html=1;fillColor=#f8cecc;strokeColor=#b85450;" vertex="1" parent="iaEKwFwizDIPbEBIRWRv-756">
          <mxGeometry x="30" width="10" height="20" as="geometry" />
        </mxCell>
        <mxCell id="iaEKwFwizDIPbEBIRWRv-761" value="" style="group" vertex="1" connectable="0" parent="1">
          <mxGeometry x="250" y="137.5" width="40" height="20" as="geometry" />
        </mxCell>
        <mxCell id="iaEKwFwizDIPbEBIRWRv-762" value="" style="rounded=0;whiteSpace=wrap;html=1;fillColor=#f8cecc;strokeColor=#b85450;" vertex="1" parent="iaEKwFwizDIPbEBIRWRv-761">
          <mxGeometry width="10" height="20" as="geometry" />
        </mxCell>
        <mxCell id="iaEKwFwizDIPbEBIRWRv-763" value="" style="rounded=0;whiteSpace=wrap;html=1;fillColor=#f8cecc;strokeColor=#b85450;" vertex="1" parent="iaEKwFwizDIPbEBIRWRv-761">
          <mxGeometry x="10" width="10" height="20" as="geometry" />
        </mxCell>
        <mxCell id="iaEKwFwizDIPbEBIRWRv-764" value="" style="rounded=0;whiteSpace=wrap;html=1;fillColor=#f8cecc;strokeColor=#b85450;" vertex="1" parent="iaEKwFwizDIPbEBIRWRv-761">
          <mxGeometry x="20" width="10" height="20" as="geometry" />
        </mxCell>
        <mxCell id="iaEKwFwizDIPbEBIRWRv-765" value="" style="rounded=0;whiteSpace=wrap;html=1;fillColor=#f8cecc;strokeColor=#b85450;" vertex="1" parent="iaEKwFwizDIPbEBIRWRv-761">
          <mxGeometry x="30" width="10" height="20" as="geometry" />
        </mxCell>
        <mxCell id="iaEKwFwizDIPbEBIRWRv-766" value="" style="group" vertex="1" connectable="0" parent="1">
          <mxGeometry x="250" y="157.5" width="40" height="20" as="geometry" />
        </mxCell>
        <mxCell id="iaEKwFwizDIPbEBIRWRv-767" value="" style="rounded=0;whiteSpace=wrap;html=1;fillColor=#f8cecc;strokeColor=#b85450;" vertex="1" parent="iaEKwFwizDIPbEBIRWRv-766">
          <mxGeometry width="10" height="20" as="geometry" />
        </mxCell>
        <mxCell id="iaEKwFwizDIPbEBIRWRv-768" value="" style="rounded=0;whiteSpace=wrap;html=1;fillColor=#f8cecc;strokeColor=#b85450;" vertex="1" parent="iaEKwFwizDIPbEBIRWRv-766">
          <mxGeometry x="10" width="10" height="20" as="geometry" />
        </mxCell>
        <mxCell id="iaEKwFwizDIPbEBIRWRv-769" value="" style="rounded=0;whiteSpace=wrap;html=1;fillColor=#f8cecc;strokeColor=#b85450;" vertex="1" parent="iaEKwFwizDIPbEBIRWRv-766">
          <mxGeometry x="20" width="10" height="20" as="geometry" />
        </mxCell>
        <mxCell id="iaEKwFwizDIPbEBIRWRv-770" value="" style="rounded=0;whiteSpace=wrap;html=1;fillColor=#f8cecc;strokeColor=#b85450;" vertex="1" parent="iaEKwFwizDIPbEBIRWRv-766">
          <mxGeometry x="30" width="10" height="20" as="geometry" />
        </mxCell>
        <mxCell id="iaEKwFwizDIPbEBIRWRv-75" value="" style="rounded=0;whiteSpace=wrap;html=1;fillColor=#f5f5f5;fontColor=#333333;strokeColor=#666666;direction=south;" vertex="1" parent="1">
          <mxGeometry x="10" y="10" width="10" height="20" as="geometry" />
        </mxCell>
        <mxCell id="iaEKwFwizDIPbEBIRWRv-76" value="" style="rounded=0;whiteSpace=wrap;html=1;fillColor=#f5f5f5;fontColor=#333333;strokeColor=#666666;direction=south;" vertex="1" parent="1">
          <mxGeometry x="10" y="30" width="10" height="20" as="geometry" />
        </mxCell>
        <mxCell id="iaEKwFwizDIPbEBIRWRv-77" value="" style="rounded=0;whiteSpace=wrap;html=1;fillColor=#f5f5f5;fontColor=#333333;strokeColor=#666666;direction=south;" vertex="1" parent="1">
          <mxGeometry x="10" y="50" width="10" height="20" as="geometry" />
        </mxCell>
        <mxCell id="iaEKwFwizDIPbEBIRWRv-78" value="" style="rounded=0;whiteSpace=wrap;html=1;fillColor=#f5f5f5;fontColor=#333333;strokeColor=#666666;direction=south;" vertex="1" parent="1">
          <mxGeometry x="10" y="70" width="10" height="20" as="geometry" />
        </mxCell>
        <mxCell id="iaEKwFwizDIPbEBIRWRv-79" value="" style="rounded=0;whiteSpace=wrap;html=1;fillColor=#f5f5f5;fontColor=#333333;strokeColor=#666666;direction=south;" vertex="1" parent="1">
          <mxGeometry x="10" y="90" width="10" height="20" as="geometry" />
        </mxCell>
        <mxCell id="iaEKwFwizDIPbEBIRWRv-80" value="" style="rounded=0;whiteSpace=wrap;html=1;fillColor=#f5f5f5;fontColor=#333333;strokeColor=#666666;direction=south;" vertex="1" parent="1">
          <mxGeometry x="10" y="110" width="10" height="20" as="geometry" />
        </mxCell>
        <mxCell id="iaEKwFwizDIPbEBIRWRv-81" value="" style="rounded=0;whiteSpace=wrap;html=1;fillColor=#f5f5f5;fontColor=#333333;strokeColor=#666666;direction=south;" vertex="1" parent="1">
          <mxGeometry x="10" y="130" width="10" height="20" as="geometry" />
        </mxCell>
        <mxCell id="iaEKwFwizDIPbEBIRWRv-82" value="" style="rounded=0;whiteSpace=wrap;html=1;fillColor=#f5f5f5;fontColor=#333333;strokeColor=#666666;direction=south;" vertex="1" parent="1">
          <mxGeometry x="10" y="150" width="10" height="20" as="geometry" />
        </mxCell>
        <mxCell id="iaEKwFwizDIPbEBIRWRv-83" value="" style="rounded=0;whiteSpace=wrap;html=1;fillColor=#f5f5f5;fontColor=#333333;strokeColor=#666666;direction=south;" vertex="1" parent="1">
          <mxGeometry x="10" y="170" width="10" height="20" as="geometry" />
        </mxCell>
        <mxCell id="iaEKwFwizDIPbEBIRWRv-84" value="" style="rounded=0;whiteSpace=wrap;html=1;fillColor=#f5f5f5;fontColor=#333333;strokeColor=#666666;direction=south;" vertex="1" parent="1">
          <mxGeometry x="10" y="190" width="10" height="20" as="geometry" />
        </mxCell>
        <mxCell id="iaEKwFwizDIPbEBIRWRv-85" value="" style="rounded=0;whiteSpace=wrap;html=1;fillColor=#f5f5f5;fontColor=#333333;strokeColor=#666666;direction=south;" vertex="1" parent="1">
          <mxGeometry x="10" y="210" width="10" height="20" as="geometry" />
        </mxCell>
        <mxCell id="iaEKwFwizDIPbEBIRWRv-86" value="" style="rounded=0;whiteSpace=wrap;html=1;fillColor=#f5f5f5;fontColor=#333333;strokeColor=#666666;direction=south;" vertex="1" parent="1">
          <mxGeometry x="10" y="230" width="10" height="20" as="geometry" />
        </mxCell>
        <mxCell id="iaEKwFwizDIPbEBIRWRv-87" value="" style="rounded=0;whiteSpace=wrap;html=1;fillColor=#f5f5f5;fontColor=#333333;strokeColor=#666666;direction=south;" vertex="1" parent="1">
          <mxGeometry x="10" y="250" width="10" height="20" as="geometry" />
        </mxCell>
        <mxCell id="iaEKwFwizDIPbEBIRWRv-88" value="" style="rounded=0;whiteSpace=wrap;html=1;fillColor=#f5f5f5;fontColor=#333333;strokeColor=#666666;direction=south;" vertex="1" parent="1">
          <mxGeometry x="10" y="270" width="10" height="20" as="geometry" />
        </mxCell>
        <mxCell id="iaEKwFwizDIPbEBIRWRv-89" value="" style="rounded=0;whiteSpace=wrap;html=1;fillColor=#f5f5f5;fontColor=#333333;strokeColor=#666666;direction=south;" vertex="1" parent="1">
          <mxGeometry x="10" y="290" width="10" height="20" as="geometry" />
        </mxCell>
        <mxCell id="iaEKwFwizDIPbEBIRWRv-90" value="" style="rounded=0;whiteSpace=wrap;html=1;fillColor=#f5f5f5;fontColor=#333333;strokeColor=#666666;direction=south;" vertex="1" parent="1">
          <mxGeometry x="10" y="310" width="10" height="20" as="geometry" />
        </mxCell>
        <mxCell id="iaEKwFwizDIPbEBIRWRv-91" value="" style="rounded=0;whiteSpace=wrap;html=1;fillColor=#f5f5f5;fontColor=#333333;strokeColor=#666666;direction=south;" vertex="1" parent="1">
          <mxGeometry x="10" y="330" width="10" height="20" as="geometry" />
        </mxCell>
        <mxCell id="iaEKwFwizDIPbEBIRWRv-92" value="" style="rounded=0;whiteSpace=wrap;html=1;fillColor=#f5f5f5;fontColor=#333333;strokeColor=#666666;direction=south;" vertex="1" parent="1">
          <mxGeometry x="10" y="350" width="10" height="20" as="geometry" />
        </mxCell>
        <mxCell id="iaEKwFwizDIPbEBIRWRv-93" value="" style="rounded=0;whiteSpace=wrap;html=1;fillColor=#f5f5f5;fontColor=#333333;strokeColor=#666666;direction=south;" vertex="1" parent="1">
          <mxGeometry x="10" y="370" width="10" height="20" as="geometry" />
        </mxCell>
        <mxCell id="iaEKwFwizDIPbEBIRWRv-94" value="" style="rounded=0;whiteSpace=wrap;html=1;fillColor=#f5f5f5;fontColor=#333333;strokeColor=#666666;direction=south;" vertex="1" parent="1">
          <mxGeometry x="10" y="390" width="10" height="20" as="geometry" />
        </mxCell>
        <mxCell id="iaEKwFwizDIPbEBIRWRv-95" value="" style="rounded=0;whiteSpace=wrap;html=1;fillColor=#f5f5f5;fontColor=#333333;strokeColor=#666666;direction=south;" vertex="1" parent="1">
          <mxGeometry x="10" y="410" width="10" height="20" as="geometry" />
        </mxCell>
        <mxCell id="iaEKwFwizDIPbEBIRWRv-311" value="" style="rounded=0;whiteSpace=wrap;html=1;fillColor=#f5f5f5;fontColor=#333333;strokeColor=#666666;direction=south;" vertex="1" parent="1">
          <mxGeometry x="20" y="10" width="10" height="20" as="geometry" />
        </mxCell>
        <mxCell id="iaEKwFwizDIPbEBIRWRv-312" value="" style="rounded=0;whiteSpace=wrap;html=1;fillColor=#f5f5f5;fontColor=#333333;strokeColor=#666666;direction=south;" vertex="1" parent="1">
          <mxGeometry x="20" y="30" width="10" height="20" as="geometry" />
        </mxCell>
        <mxCell id="iaEKwFwizDIPbEBIRWRv-313" value="" style="rounded=0;whiteSpace=wrap;html=1;fillColor=#f5f5f5;fontColor=#333333;strokeColor=#666666;direction=south;" vertex="1" parent="1">
          <mxGeometry x="20" y="50" width="10" height="20" as="geometry" />
        </mxCell>
        <mxCell id="iaEKwFwizDIPbEBIRWRv-314" value="" style="rounded=0;whiteSpace=wrap;html=1;fillColor=#f5f5f5;fontColor=#333333;strokeColor=#666666;direction=south;" vertex="1" parent="1">
          <mxGeometry x="20" y="70" width="10" height="20" as="geometry" />
        </mxCell>
        <mxCell id="iaEKwFwizDIPbEBIRWRv-315" value="" style="rounded=0;whiteSpace=wrap;html=1;fillColor=#f5f5f5;fontColor=#333333;strokeColor=#666666;direction=south;" vertex="1" parent="1">
          <mxGeometry x="20" y="90" width="10" height="20" as="geometry" />
        </mxCell>
        <mxCell id="iaEKwFwizDIPbEBIRWRv-316" value="" style="rounded=0;whiteSpace=wrap;html=1;fillColor=#f5f5f5;fontColor=#333333;strokeColor=#666666;direction=south;" vertex="1" parent="1">
          <mxGeometry x="20" y="110" width="10" height="20" as="geometry" />
        </mxCell>
        <mxCell id="iaEKwFwizDIPbEBIRWRv-317" value="" style="rounded=0;whiteSpace=wrap;html=1;fillColor=#f5f5f5;fontColor=#333333;strokeColor=#666666;direction=south;" vertex="1" parent="1">
          <mxGeometry x="20" y="130" width="10" height="20" as="geometry" />
        </mxCell>
        <mxCell id="iaEKwFwizDIPbEBIRWRv-318" value="" style="rounded=0;whiteSpace=wrap;html=1;fillColor=#f5f5f5;fontColor=#333333;strokeColor=#666666;direction=south;" vertex="1" parent="1">
          <mxGeometry x="20" y="150" width="10" height="20" as="geometry" />
        </mxCell>
        <mxCell id="iaEKwFwizDIPbEBIRWRv-319" value="" style="rounded=0;whiteSpace=wrap;html=1;fillColor=#f5f5f5;fontColor=#333333;strokeColor=#666666;direction=south;" vertex="1" parent="1">
          <mxGeometry x="20" y="170" width="10" height="20" as="geometry" />
        </mxCell>
        <mxCell id="iaEKwFwizDIPbEBIRWRv-320" value="" style="rounded=0;whiteSpace=wrap;html=1;fillColor=#f5f5f5;fontColor=#333333;strokeColor=#666666;direction=south;" vertex="1" parent="1">
          <mxGeometry x="20" y="190" width="10" height="20" as="geometry" />
        </mxCell>
        <mxCell id="iaEKwFwizDIPbEBIRWRv-321" value="" style="rounded=0;whiteSpace=wrap;html=1;fillColor=#f5f5f5;fontColor=#333333;strokeColor=#666666;direction=south;" vertex="1" parent="1">
          <mxGeometry x="20" y="210" width="10" height="20" as="geometry" />
        </mxCell>
        <mxCell id="iaEKwFwizDIPbEBIRWRv-322" value="" style="rounded=0;whiteSpace=wrap;html=1;fillColor=#f5f5f5;fontColor=#333333;strokeColor=#666666;direction=south;" vertex="1" parent="1">
          <mxGeometry x="20" y="230" width="10" height="20" as="geometry" />
        </mxCell>
        <mxCell id="iaEKwFwizDIPbEBIRWRv-323" value="" style="rounded=0;whiteSpace=wrap;html=1;fillColor=#f5f5f5;fontColor=#333333;strokeColor=#666666;direction=south;" vertex="1" parent="1">
          <mxGeometry x="20" y="250" width="10" height="20" as="geometry" />
        </mxCell>
        <mxCell id="iaEKwFwizDIPbEBIRWRv-324" value="" style="rounded=0;whiteSpace=wrap;html=1;fillColor=#f5f5f5;fontColor=#333333;strokeColor=#666666;direction=south;" vertex="1" parent="1">
          <mxGeometry x="20" y="270" width="10" height="20" as="geometry" />
        </mxCell>
        <mxCell id="iaEKwFwizDIPbEBIRWRv-325" value="" style="rounded=0;whiteSpace=wrap;html=1;fillColor=#f5f5f5;fontColor=#333333;strokeColor=#666666;direction=south;" vertex="1" parent="1">
          <mxGeometry x="20" y="290" width="10" height="20" as="geometry" />
        </mxCell>
        <mxCell id="iaEKwFwizDIPbEBIRWRv-326" value="" style="rounded=0;whiteSpace=wrap;html=1;fillColor=#f5f5f5;fontColor=#333333;strokeColor=#666666;direction=south;" vertex="1" parent="1">
          <mxGeometry x="20" y="310" width="10" height="20" as="geometry" />
        </mxCell>
        <mxCell id="iaEKwFwizDIPbEBIRWRv-327" value="" style="rounded=0;whiteSpace=wrap;html=1;fillColor=#f5f5f5;fontColor=#333333;strokeColor=#666666;direction=south;" vertex="1" parent="1">
          <mxGeometry x="20" y="330" width="10" height="20" as="geometry" />
        </mxCell>
        <mxCell id="iaEKwFwizDIPbEBIRWRv-328" value="" style="rounded=0;whiteSpace=wrap;html=1;fillColor=#f5f5f5;fontColor=#333333;strokeColor=#666666;direction=south;" vertex="1" parent="1">
          <mxGeometry x="20" y="350" width="10" height="20" as="geometry" />
        </mxCell>
        <mxCell id="iaEKwFwizDIPbEBIRWRv-329" value="" style="rounded=0;whiteSpace=wrap;html=1;fillColor=#f5f5f5;fontColor=#333333;strokeColor=#666666;direction=south;" vertex="1" parent="1">
          <mxGeometry x="20" y="370" width="10" height="20" as="geometry" />
        </mxCell>
        <mxCell id="iaEKwFwizDIPbEBIRWRv-330" value="" style="rounded=0;whiteSpace=wrap;html=1;fillColor=#f5f5f5;fontColor=#333333;strokeColor=#666666;direction=south;" vertex="1" parent="1">
          <mxGeometry x="20" y="390" width="10" height="20" as="geometry" />
        </mxCell>
        <mxCell id="iaEKwFwizDIPbEBIRWRv-331" value="" style="rounded=0;whiteSpace=wrap;html=1;fillColor=#f5f5f5;fontColor=#333333;strokeColor=#666666;direction=south;" vertex="1" parent="1">
          <mxGeometry x="20" y="410" width="10" height="20" as="geometry" />
        </mxCell>
        <mxCell id="iaEKwFwizDIPbEBIRWRv-334" value="" style="rounded=0;whiteSpace=wrap;html=1;fillColor=#f5f5f5;fontColor=#333333;strokeColor=#666666;direction=south;" vertex="1" parent="1">
          <mxGeometry x="30" y="10" width="10" height="20" as="geometry" />
        </mxCell>
        <mxCell id="iaEKwFwizDIPbEBIRWRv-335" value="" style="rounded=0;whiteSpace=wrap;html=1;fillColor=#f5f5f5;fontColor=#333333;strokeColor=#666666;direction=south;" vertex="1" parent="1">
          <mxGeometry x="30" y="30" width="10" height="20" as="geometry" />
        </mxCell>
        <mxCell id="iaEKwFwizDIPbEBIRWRv-336" value="" style="rounded=0;whiteSpace=wrap;html=1;fillColor=#f5f5f5;fontColor=#333333;strokeColor=#666666;direction=south;" vertex="1" parent="1">
          <mxGeometry x="30" y="50" width="10" height="20" as="geometry" />
        </mxCell>
        <mxCell id="iaEKwFwizDIPbEBIRWRv-337" value="" style="rounded=0;whiteSpace=wrap;html=1;fillColor=#f5f5f5;fontColor=#333333;strokeColor=#666666;direction=south;" vertex="1" parent="1">
          <mxGeometry x="30" y="70" width="10" height="20" as="geometry" />
        </mxCell>
        <mxCell id="iaEKwFwizDIPbEBIRWRv-338" value="" style="rounded=0;whiteSpace=wrap;html=1;fillColor=#f5f5f5;fontColor=#333333;strokeColor=#666666;direction=south;" vertex="1" parent="1">
          <mxGeometry x="30" y="90" width="10" height="20" as="geometry" />
        </mxCell>
        <mxCell id="iaEKwFwizDIPbEBIRWRv-339" value="" style="rounded=0;whiteSpace=wrap;html=1;fillColor=#f5f5f5;fontColor=#333333;strokeColor=#666666;direction=south;" vertex="1" parent="1">
          <mxGeometry x="30" y="110" width="10" height="20" as="geometry" />
        </mxCell>
        <mxCell id="iaEKwFwizDIPbEBIRWRv-340" value="" style="rounded=0;whiteSpace=wrap;html=1;fillColor=#f5f5f5;fontColor=#333333;strokeColor=#666666;direction=south;" vertex="1" parent="1">
          <mxGeometry x="30" y="130" width="10" height="20" as="geometry" />
        </mxCell>
        <mxCell id="iaEKwFwizDIPbEBIRWRv-341" value="" style="rounded=0;whiteSpace=wrap;html=1;fillColor=#f5f5f5;fontColor=#333333;strokeColor=#666666;direction=south;" vertex="1" parent="1">
          <mxGeometry x="30" y="150" width="10" height="20" as="geometry" />
        </mxCell>
        <mxCell id="iaEKwFwizDIPbEBIRWRv-342" value="" style="rounded=0;whiteSpace=wrap;html=1;fillColor=#f5f5f5;fontColor=#333333;strokeColor=#666666;direction=south;" vertex="1" parent="1">
          <mxGeometry x="30" y="170" width="10" height="20" as="geometry" />
        </mxCell>
        <mxCell id="iaEKwFwizDIPbEBIRWRv-343" value="" style="rounded=0;whiteSpace=wrap;html=1;fillColor=#f5f5f5;fontColor=#333333;strokeColor=#666666;direction=south;" vertex="1" parent="1">
          <mxGeometry x="30" y="190" width="10" height="20" as="geometry" />
        </mxCell>
        <mxCell id="iaEKwFwizDIPbEBIRWRv-344" value="" style="rounded=0;whiteSpace=wrap;html=1;fillColor=#f5f5f5;fontColor=#333333;strokeColor=#666666;direction=south;" vertex="1" parent="1">
          <mxGeometry x="30" y="210" width="10" height="20" as="geometry" />
        </mxCell>
        <mxCell id="iaEKwFwizDIPbEBIRWRv-345" value="" style="rounded=0;whiteSpace=wrap;html=1;fillColor=#f5f5f5;fontColor=#333333;strokeColor=#666666;direction=south;" vertex="1" parent="1">
          <mxGeometry x="30" y="230" width="10" height="20" as="geometry" />
        </mxCell>
        <mxCell id="iaEKwFwizDIPbEBIRWRv-346" value="" style="rounded=0;whiteSpace=wrap;html=1;fillColor=#f5f5f5;fontColor=#333333;strokeColor=#666666;direction=south;" vertex="1" parent="1">
          <mxGeometry x="30" y="250" width="10" height="20" as="geometry" />
        </mxCell>
        <mxCell id="iaEKwFwizDIPbEBIRWRv-347" value="" style="rounded=0;whiteSpace=wrap;html=1;fillColor=#f5f5f5;fontColor=#333333;strokeColor=#666666;direction=south;" vertex="1" parent="1">
          <mxGeometry x="30" y="270" width="10" height="20" as="geometry" />
        </mxCell>
        <mxCell id="iaEKwFwizDIPbEBIRWRv-348" value="" style="rounded=0;whiteSpace=wrap;html=1;fillColor=#f5f5f5;fontColor=#333333;strokeColor=#666666;direction=south;" vertex="1" parent="1">
          <mxGeometry x="30" y="290" width="10" height="20" as="geometry" />
        </mxCell>
        <mxCell id="iaEKwFwizDIPbEBIRWRv-349" value="" style="rounded=0;whiteSpace=wrap;html=1;fillColor=#f5f5f5;fontColor=#333333;strokeColor=#666666;direction=south;" vertex="1" parent="1">
          <mxGeometry x="30" y="310" width="10" height="20" as="geometry" />
        </mxCell>
        <mxCell id="iaEKwFwizDIPbEBIRWRv-350" value="" style="rounded=0;whiteSpace=wrap;html=1;fillColor=#f5f5f5;fontColor=#333333;strokeColor=#666666;direction=south;" vertex="1" parent="1">
          <mxGeometry x="30" y="330" width="10" height="20" as="geometry" />
        </mxCell>
        <mxCell id="iaEKwFwizDIPbEBIRWRv-351" value="" style="rounded=0;whiteSpace=wrap;html=1;fillColor=#f5f5f5;fontColor=#333333;strokeColor=#666666;direction=south;" vertex="1" parent="1">
          <mxGeometry x="30" y="350" width="10" height="20" as="geometry" />
        </mxCell>
        <mxCell id="iaEKwFwizDIPbEBIRWRv-352" value="" style="rounded=0;whiteSpace=wrap;html=1;fillColor=#f5f5f5;fontColor=#333333;strokeColor=#666666;direction=south;" vertex="1" parent="1">
          <mxGeometry x="30" y="370" width="10" height="20" as="geometry" />
        </mxCell>
        <mxCell id="iaEKwFwizDIPbEBIRWRv-353" value="" style="rounded=0;whiteSpace=wrap;html=1;fillColor=#f5f5f5;fontColor=#333333;strokeColor=#666666;direction=south;" vertex="1" parent="1">
          <mxGeometry x="30" y="390" width="10" height="20" as="geometry" />
        </mxCell>
        <mxCell id="iaEKwFwizDIPbEBIRWRv-354" value="" style="rounded=0;whiteSpace=wrap;html=1;fillColor=#f5f5f5;fontColor=#333333;strokeColor=#666666;direction=south;" vertex="1" parent="1">
          <mxGeometry x="30" y="410" width="10" height="20" as="geometry" />
        </mxCell>
        <mxCell id="iaEKwFwizDIPbEBIRWRv-357" value="" style="rounded=0;whiteSpace=wrap;html=1;fillColor=#f5f5f5;fontColor=#333333;strokeColor=#666666;direction=south;" vertex="1" parent="1">
          <mxGeometry x="40" y="10" width="10" height="20" as="geometry" />
        </mxCell>
        <mxCell id="iaEKwFwizDIPbEBIRWRv-358" value="" style="rounded=0;whiteSpace=wrap;html=1;fillColor=#f5f5f5;fontColor=#333333;strokeColor=#666666;direction=south;" vertex="1" parent="1">
          <mxGeometry x="40" y="30" width="10" height="20" as="geometry" />
        </mxCell>
        <mxCell id="iaEKwFwizDIPbEBIRWRv-359" value="" style="rounded=0;whiteSpace=wrap;html=1;fillColor=#f5f5f5;fontColor=#333333;strokeColor=#666666;direction=south;" vertex="1" parent="1">
          <mxGeometry x="40" y="50" width="10" height="20" as="geometry" />
        </mxCell>
        <mxCell id="iaEKwFwizDIPbEBIRWRv-360" value="" style="rounded=0;whiteSpace=wrap;html=1;fillColor=#f5f5f5;fontColor=#333333;strokeColor=#666666;direction=south;" vertex="1" parent="1">
          <mxGeometry x="40" y="70" width="10" height="20" as="geometry" />
        </mxCell>
        <mxCell id="iaEKwFwizDIPbEBIRWRv-361" value="" style="rounded=0;whiteSpace=wrap;html=1;fillColor=#f5f5f5;fontColor=#333333;strokeColor=#666666;direction=south;" vertex="1" parent="1">
          <mxGeometry x="40" y="90" width="10" height="20" as="geometry" />
        </mxCell>
        <mxCell id="iaEKwFwizDIPbEBIRWRv-362" value="" style="rounded=0;whiteSpace=wrap;html=1;fillColor=#f5f5f5;fontColor=#333333;strokeColor=#666666;direction=south;" vertex="1" parent="1">
          <mxGeometry x="40" y="110" width="10" height="20" as="geometry" />
        </mxCell>
        <mxCell id="iaEKwFwizDIPbEBIRWRv-363" value="" style="rounded=0;whiteSpace=wrap;html=1;fillColor=#f5f5f5;fontColor=#333333;strokeColor=#666666;direction=south;" vertex="1" parent="1">
          <mxGeometry x="40" y="130" width="10" height="20" as="geometry" />
        </mxCell>
        <mxCell id="iaEKwFwizDIPbEBIRWRv-364" value="" style="rounded=0;whiteSpace=wrap;html=1;fillColor=#f5f5f5;fontColor=#333333;strokeColor=#666666;direction=south;" vertex="1" parent="1">
          <mxGeometry x="40" y="150" width="10" height="20" as="geometry" />
        </mxCell>
        <mxCell id="iaEKwFwizDIPbEBIRWRv-365" value="" style="rounded=0;whiteSpace=wrap;html=1;fillColor=#f5f5f5;fontColor=#333333;strokeColor=#666666;direction=south;" vertex="1" parent="1">
          <mxGeometry x="40" y="170" width="10" height="20" as="geometry" />
        </mxCell>
        <mxCell id="iaEKwFwizDIPbEBIRWRv-366" value="" style="rounded=0;whiteSpace=wrap;html=1;fillColor=#f5f5f5;fontColor=#333333;strokeColor=#666666;direction=south;" vertex="1" parent="1">
          <mxGeometry x="40" y="190" width="10" height="20" as="geometry" />
        </mxCell>
        <mxCell id="iaEKwFwizDIPbEBIRWRv-367" value="" style="rounded=0;whiteSpace=wrap;html=1;fillColor=#f5f5f5;fontColor=#333333;strokeColor=#666666;direction=south;" vertex="1" parent="1">
          <mxGeometry x="40" y="210" width="10" height="20" as="geometry" />
        </mxCell>
        <mxCell id="iaEKwFwizDIPbEBIRWRv-368" value="" style="rounded=0;whiteSpace=wrap;html=1;fillColor=#f5f5f5;fontColor=#333333;strokeColor=#666666;direction=south;" vertex="1" parent="1">
          <mxGeometry x="40" y="230" width="10" height="20" as="geometry" />
        </mxCell>
        <mxCell id="iaEKwFwizDIPbEBIRWRv-369" value="" style="rounded=0;whiteSpace=wrap;html=1;fillColor=#f5f5f5;fontColor=#333333;strokeColor=#666666;direction=south;" vertex="1" parent="1">
          <mxGeometry x="40" y="250" width="10" height="20" as="geometry" />
        </mxCell>
        <mxCell id="iaEKwFwizDIPbEBIRWRv-370" value="" style="rounded=0;whiteSpace=wrap;html=1;fillColor=#f5f5f5;fontColor=#333333;strokeColor=#666666;direction=south;" vertex="1" parent="1">
          <mxGeometry x="40" y="270" width="10" height="20" as="geometry" />
        </mxCell>
        <mxCell id="iaEKwFwizDIPbEBIRWRv-371" value="" style="rounded=0;whiteSpace=wrap;html=1;fillColor=#f5f5f5;fontColor=#333333;strokeColor=#666666;direction=south;" vertex="1" parent="1">
          <mxGeometry x="40" y="290" width="10" height="20" as="geometry" />
        </mxCell>
        <mxCell id="iaEKwFwizDIPbEBIRWRv-372" value="" style="rounded=0;whiteSpace=wrap;html=1;fillColor=#f5f5f5;fontColor=#333333;strokeColor=#666666;direction=south;" vertex="1" parent="1">
          <mxGeometry x="40" y="310" width="10" height="20" as="geometry" />
        </mxCell>
        <mxCell id="iaEKwFwizDIPbEBIRWRv-373" value="" style="rounded=0;whiteSpace=wrap;html=1;fillColor=#f5f5f5;fontColor=#333333;strokeColor=#666666;direction=south;" vertex="1" parent="1">
          <mxGeometry x="40" y="330" width="10" height="20" as="geometry" />
        </mxCell>
        <mxCell id="iaEKwFwizDIPbEBIRWRv-374" value="" style="rounded=0;whiteSpace=wrap;html=1;fillColor=#f5f5f5;fontColor=#333333;strokeColor=#666666;direction=south;" vertex="1" parent="1">
          <mxGeometry x="40" y="350" width="10" height="20" as="geometry" />
        </mxCell>
        <mxCell id="iaEKwFwizDIPbEBIRWRv-375" value="" style="rounded=0;whiteSpace=wrap;html=1;fillColor=#f5f5f5;fontColor=#333333;strokeColor=#666666;direction=south;" vertex="1" parent="1">
          <mxGeometry x="40" y="370" width="10" height="20" as="geometry" />
        </mxCell>
        <mxCell id="iaEKwFwizDIPbEBIRWRv-376" value="" style="rounded=0;whiteSpace=wrap;html=1;fillColor=#f5f5f5;fontColor=#333333;strokeColor=#666666;direction=south;" vertex="1" parent="1">
          <mxGeometry x="40" y="390" width="10" height="20" as="geometry" />
        </mxCell>
        <mxCell id="iaEKwFwizDIPbEBIRWRv-377" value="" style="rounded=0;whiteSpace=wrap;html=1;fillColor=#f5f5f5;fontColor=#333333;strokeColor=#666666;direction=south;" vertex="1" parent="1">
          <mxGeometry x="40" y="410" width="10" height="20" as="geometry" />
        </mxCell>
        <mxCell id="iaEKwFwizDIPbEBIRWRv-380" value="" style="rounded=0;whiteSpace=wrap;html=1;fillColor=#f5f5f5;fontColor=#333333;strokeColor=#666666;direction=south;" vertex="1" parent="1">
          <mxGeometry x="50" y="10" width="10" height="20" as="geometry" />
        </mxCell>
        <mxCell id="iaEKwFwizDIPbEBIRWRv-381" value="" style="rounded=0;whiteSpace=wrap;html=1;fillColor=#f5f5f5;fontColor=#333333;strokeColor=#666666;direction=south;" vertex="1" parent="1">
          <mxGeometry x="50" y="30" width="10" height="20" as="geometry" />
        </mxCell>
        <mxCell id="iaEKwFwizDIPbEBIRWRv-382" value="" style="rounded=0;whiteSpace=wrap;html=1;fillColor=#f5f5f5;fontColor=#333333;strokeColor=#666666;direction=south;" vertex="1" parent="1">
          <mxGeometry x="50" y="50" width="10" height="20" as="geometry" />
        </mxCell>
        <mxCell id="iaEKwFwizDIPbEBIRWRv-383" value="" style="rounded=0;whiteSpace=wrap;html=1;fillColor=#f5f5f5;fontColor=#333333;strokeColor=#666666;direction=south;" vertex="1" parent="1">
          <mxGeometry x="50" y="70" width="10" height="20" as="geometry" />
        </mxCell>
        <mxCell id="iaEKwFwizDIPbEBIRWRv-384" value="" style="rounded=0;whiteSpace=wrap;html=1;fillColor=#f5f5f5;fontColor=#333333;strokeColor=#666666;direction=south;" vertex="1" parent="1">
          <mxGeometry x="50" y="90" width="10" height="20" as="geometry" />
        </mxCell>
        <mxCell id="iaEKwFwizDIPbEBIRWRv-385" value="" style="rounded=0;whiteSpace=wrap;html=1;fillColor=#f5f5f5;fontColor=#333333;strokeColor=#666666;direction=south;" vertex="1" parent="1">
          <mxGeometry x="50" y="110" width="10" height="20" as="geometry" />
        </mxCell>
        <mxCell id="iaEKwFwizDIPbEBIRWRv-386" value="" style="rounded=0;whiteSpace=wrap;html=1;fillColor=#f5f5f5;fontColor=#333333;strokeColor=#666666;direction=south;" vertex="1" parent="1">
          <mxGeometry x="50" y="130" width="10" height="20" as="geometry" />
        </mxCell>
        <mxCell id="iaEKwFwizDIPbEBIRWRv-387" value="" style="rounded=0;whiteSpace=wrap;html=1;fillColor=#f5f5f5;fontColor=#333333;strokeColor=#666666;direction=south;" vertex="1" parent="1">
          <mxGeometry x="50" y="150" width="10" height="20" as="geometry" />
        </mxCell>
        <mxCell id="iaEKwFwizDIPbEBIRWRv-388" value="" style="rounded=0;whiteSpace=wrap;html=1;fillColor=#f5f5f5;fontColor=#333333;strokeColor=#666666;direction=south;" vertex="1" parent="1">
          <mxGeometry x="50" y="170" width="10" height="20" as="geometry" />
        </mxCell>
        <mxCell id="iaEKwFwizDIPbEBIRWRv-389" value="" style="rounded=0;whiteSpace=wrap;html=1;fillColor=#f5f5f5;fontColor=#333333;strokeColor=#666666;direction=south;" vertex="1" parent="1">
          <mxGeometry x="50" y="190" width="10" height="20" as="geometry" />
        </mxCell>
        <mxCell id="iaEKwFwizDIPbEBIRWRv-390" value="" style="rounded=0;whiteSpace=wrap;html=1;fillColor=#f5f5f5;fontColor=#333333;strokeColor=#666666;direction=south;" vertex="1" parent="1">
          <mxGeometry x="50" y="210" width="10" height="20" as="geometry" />
        </mxCell>
        <mxCell id="iaEKwFwizDIPbEBIRWRv-391" value="" style="rounded=0;whiteSpace=wrap;html=1;fillColor=#f5f5f5;fontColor=#333333;strokeColor=#666666;direction=south;" vertex="1" parent="1">
          <mxGeometry x="50" y="230" width="10" height="20" as="geometry" />
        </mxCell>
        <mxCell id="iaEKwFwizDIPbEBIRWRv-392" value="" style="rounded=0;whiteSpace=wrap;html=1;fillColor=#f5f5f5;fontColor=#333333;strokeColor=#666666;direction=south;" vertex="1" parent="1">
          <mxGeometry x="50" y="250" width="10" height="20" as="geometry" />
        </mxCell>
        <mxCell id="iaEKwFwizDIPbEBIRWRv-393" value="" style="rounded=0;whiteSpace=wrap;html=1;fillColor=#f5f5f5;fontColor=#333333;strokeColor=#666666;direction=south;" vertex="1" parent="1">
          <mxGeometry x="50" y="270" width="10" height="20" as="geometry" />
        </mxCell>
        <mxCell id="iaEKwFwizDIPbEBIRWRv-394" value="" style="rounded=0;whiteSpace=wrap;html=1;fillColor=#f5f5f5;fontColor=#333333;strokeColor=#666666;direction=south;" vertex="1" parent="1">
          <mxGeometry x="50" y="290" width="10" height="20" as="geometry" />
        </mxCell>
        <mxCell id="iaEKwFwizDIPbEBIRWRv-395" value="" style="rounded=0;whiteSpace=wrap;html=1;fillColor=#f5f5f5;fontColor=#333333;strokeColor=#666666;direction=south;" vertex="1" parent="1">
          <mxGeometry x="50" y="310" width="10" height="20" as="geometry" />
        </mxCell>
        <mxCell id="iaEKwFwizDIPbEBIRWRv-396" value="" style="rounded=0;whiteSpace=wrap;html=1;fillColor=#f5f5f5;fontColor=#333333;strokeColor=#666666;direction=south;" vertex="1" parent="1">
          <mxGeometry x="50" y="330" width="10" height="20" as="geometry" />
        </mxCell>
        <mxCell id="iaEKwFwizDIPbEBIRWRv-397" value="" style="rounded=0;whiteSpace=wrap;html=1;fillColor=#f5f5f5;fontColor=#333333;strokeColor=#666666;direction=south;" vertex="1" parent="1">
          <mxGeometry x="50" y="350" width="10" height="20" as="geometry" />
        </mxCell>
        <mxCell id="iaEKwFwizDIPbEBIRWRv-398" value="" style="rounded=0;whiteSpace=wrap;html=1;fillColor=#f5f5f5;fontColor=#333333;strokeColor=#666666;direction=south;" vertex="1" parent="1">
          <mxGeometry x="50" y="370" width="10" height="20" as="geometry" />
        </mxCell>
        <mxCell id="iaEKwFwizDIPbEBIRWRv-399" value="" style="rounded=0;whiteSpace=wrap;html=1;fillColor=#f5f5f5;fontColor=#333333;strokeColor=#666666;direction=south;" vertex="1" parent="1">
          <mxGeometry x="50" y="390" width="10" height="20" as="geometry" />
        </mxCell>
        <mxCell id="iaEKwFwizDIPbEBIRWRv-400" value="" style="rounded=0;whiteSpace=wrap;html=1;fillColor=#f5f5f5;fontColor=#333333;strokeColor=#666666;direction=south;" vertex="1" parent="1">
          <mxGeometry x="50" y="410" width="10" height="20" as="geometry" />
        </mxCell>
        <mxCell id="iaEKwFwizDIPbEBIRWRv-403" value="" style="rounded=0;whiteSpace=wrap;html=1;fillColor=#f5f5f5;fontColor=#333333;strokeColor=#666666;direction=south;" vertex="1" parent="1">
          <mxGeometry x="60" y="10" width="10" height="20" as="geometry" />
        </mxCell>
        <mxCell id="iaEKwFwizDIPbEBIRWRv-404" value="" style="rounded=0;whiteSpace=wrap;html=1;fillColor=#f5f5f5;fontColor=#333333;strokeColor=#666666;direction=south;" vertex="1" parent="1">
          <mxGeometry x="60" y="30" width="10" height="20" as="geometry" />
        </mxCell>
        <mxCell id="iaEKwFwizDIPbEBIRWRv-405" value="" style="rounded=0;whiteSpace=wrap;html=1;fillColor=#f5f5f5;fontColor=#333333;strokeColor=#666666;direction=south;" vertex="1" parent="1">
          <mxGeometry x="60" y="50" width="10" height="20" as="geometry" />
        </mxCell>
        <mxCell id="iaEKwFwizDIPbEBIRWRv-406" value="" style="rounded=0;whiteSpace=wrap;html=1;fillColor=#f5f5f5;fontColor=#333333;strokeColor=#666666;direction=south;" vertex="1" parent="1">
          <mxGeometry x="60" y="70" width="10" height="20" as="geometry" />
        </mxCell>
        <mxCell id="iaEKwFwizDIPbEBIRWRv-407" value="" style="rounded=0;whiteSpace=wrap;html=1;fillColor=#f5f5f5;fontColor=#333333;strokeColor=#666666;direction=south;" vertex="1" parent="1">
          <mxGeometry x="60" y="90" width="10" height="20" as="geometry" />
        </mxCell>
        <mxCell id="iaEKwFwizDIPbEBIRWRv-408" value="" style="rounded=0;whiteSpace=wrap;html=1;fillColor=#f5f5f5;fontColor=#333333;strokeColor=#666666;direction=south;" vertex="1" parent="1">
          <mxGeometry x="60" y="110" width="10" height="20" as="geometry" />
        </mxCell>
        <mxCell id="iaEKwFwizDIPbEBIRWRv-409" value="" style="rounded=0;whiteSpace=wrap;html=1;fillColor=#f5f5f5;fontColor=#333333;strokeColor=#666666;direction=south;" vertex="1" parent="1">
          <mxGeometry x="60" y="130" width="10" height="20" as="geometry" />
        </mxCell>
        <mxCell id="iaEKwFwizDIPbEBIRWRv-410" value="" style="rounded=0;whiteSpace=wrap;html=1;fillColor=#f5f5f5;fontColor=#333333;strokeColor=#666666;direction=south;" vertex="1" parent="1">
          <mxGeometry x="60" y="150" width="10" height="20" as="geometry" />
        </mxCell>
        <mxCell id="iaEKwFwizDIPbEBIRWRv-411" value="" style="rounded=0;whiteSpace=wrap;html=1;fillColor=#f5f5f5;fontColor=#333333;strokeColor=#666666;direction=south;" vertex="1" parent="1">
          <mxGeometry x="60" y="170" width="10" height="20" as="geometry" />
        </mxCell>
        <mxCell id="iaEKwFwizDIPbEBIRWRv-412" value="" style="rounded=0;whiteSpace=wrap;html=1;fillColor=#f5f5f5;fontColor=#333333;strokeColor=#666666;direction=south;" vertex="1" parent="1">
          <mxGeometry x="60" y="190" width="10" height="20" as="geometry" />
        </mxCell>
        <mxCell id="iaEKwFwizDIPbEBIRWRv-413" value="" style="rounded=0;whiteSpace=wrap;html=1;fillColor=#f5f5f5;fontColor=#333333;strokeColor=#666666;direction=south;" vertex="1" parent="1">
          <mxGeometry x="60" y="210" width="10" height="20" as="geometry" />
        </mxCell>
        <mxCell id="iaEKwFwizDIPbEBIRWRv-414" value="" style="rounded=0;whiteSpace=wrap;html=1;fillColor=#f5f5f5;fontColor=#333333;strokeColor=#666666;direction=south;" vertex="1" parent="1">
          <mxGeometry x="60" y="230" width="10" height="20" as="geometry" />
        </mxCell>
        <mxCell id="iaEKwFwizDIPbEBIRWRv-415" value="" style="rounded=0;whiteSpace=wrap;html=1;fillColor=#f5f5f5;fontColor=#333333;strokeColor=#666666;direction=south;" vertex="1" parent="1">
          <mxGeometry x="60" y="250" width="10" height="20" as="geometry" />
        </mxCell>
        <mxCell id="iaEKwFwizDIPbEBIRWRv-416" value="" style="rounded=0;whiteSpace=wrap;html=1;fillColor=#f5f5f5;fontColor=#333333;strokeColor=#666666;direction=south;" vertex="1" parent="1">
          <mxGeometry x="60" y="270" width="10" height="20" as="geometry" />
        </mxCell>
        <mxCell id="iaEKwFwizDIPbEBIRWRv-417" value="" style="rounded=0;whiteSpace=wrap;html=1;fillColor=#f5f5f5;fontColor=#333333;strokeColor=#666666;direction=south;" vertex="1" parent="1">
          <mxGeometry x="60" y="290" width="10" height="20" as="geometry" />
        </mxCell>
        <mxCell id="iaEKwFwizDIPbEBIRWRv-418" value="" style="rounded=0;whiteSpace=wrap;html=1;fillColor=#f5f5f5;fontColor=#333333;strokeColor=#666666;direction=south;" vertex="1" parent="1">
          <mxGeometry x="60" y="310" width="10" height="20" as="geometry" />
        </mxCell>
        <mxCell id="iaEKwFwizDIPbEBIRWRv-419" value="" style="rounded=0;whiteSpace=wrap;html=1;fillColor=#f5f5f5;fontColor=#333333;strokeColor=#666666;direction=south;" vertex="1" parent="1">
          <mxGeometry x="60" y="330" width="10" height="20" as="geometry" />
        </mxCell>
        <mxCell id="iaEKwFwizDIPbEBIRWRv-420" value="" style="rounded=0;whiteSpace=wrap;html=1;fillColor=#f5f5f5;fontColor=#333333;strokeColor=#666666;direction=south;" vertex="1" parent="1">
          <mxGeometry x="60" y="350" width="10" height="20" as="geometry" />
        </mxCell>
        <mxCell id="iaEKwFwizDIPbEBIRWRv-421" value="" style="rounded=0;whiteSpace=wrap;html=1;fillColor=#f5f5f5;fontColor=#333333;strokeColor=#666666;direction=south;" vertex="1" parent="1">
          <mxGeometry x="60" y="370" width="10" height="20" as="geometry" />
        </mxCell>
        <mxCell id="iaEKwFwizDIPbEBIRWRv-422" value="" style="rounded=0;whiteSpace=wrap;html=1;fillColor=#f5f5f5;fontColor=#333333;strokeColor=#666666;direction=south;" vertex="1" parent="1">
          <mxGeometry x="60" y="390" width="10" height="20" as="geometry" />
        </mxCell>
        <mxCell id="iaEKwFwizDIPbEBIRWRv-423" value="" style="rounded=0;whiteSpace=wrap;html=1;fillColor=#f5f5f5;fontColor=#333333;strokeColor=#666666;direction=south;" vertex="1" parent="1">
          <mxGeometry x="60" y="410" width="10" height="20" as="geometry" />
        </mxCell>
        <mxCell id="iaEKwFwizDIPbEBIRWRv-426" value="" style="rounded=0;whiteSpace=wrap;html=1;fillColor=#f5f5f5;fontColor=#333333;strokeColor=#666666;direction=south;" vertex="1" parent="1">
          <mxGeometry x="70" y="10" width="10" height="20" as="geometry" />
        </mxCell>
        <mxCell id="iaEKwFwizDIPbEBIRWRv-427" value="" style="rounded=0;whiteSpace=wrap;html=1;fillColor=#f5f5f5;fontColor=#333333;strokeColor=#666666;direction=south;" vertex="1" parent="1">
          <mxGeometry x="70" y="30" width="10" height="20" as="geometry" />
        </mxCell>
        <mxCell id="iaEKwFwizDIPbEBIRWRv-428" value="" style="rounded=0;whiteSpace=wrap;html=1;fillColor=#f5f5f5;fontColor=#333333;strokeColor=#666666;direction=south;" vertex="1" parent="1">
          <mxGeometry x="70" y="50" width="10" height="20" as="geometry" />
        </mxCell>
        <mxCell id="iaEKwFwizDIPbEBIRWRv-429" value="" style="rounded=0;whiteSpace=wrap;html=1;fillColor=#f5f5f5;fontColor=#333333;strokeColor=#666666;direction=south;" vertex="1" parent="1">
          <mxGeometry x="70" y="70" width="10" height="20" as="geometry" />
        </mxCell>
        <mxCell id="iaEKwFwizDIPbEBIRWRv-430" value="" style="rounded=0;whiteSpace=wrap;html=1;fillColor=#f5f5f5;fontColor=#333333;strokeColor=#666666;direction=south;" vertex="1" parent="1">
          <mxGeometry x="70" y="90" width="10" height="20" as="geometry" />
        </mxCell>
        <mxCell id="iaEKwFwizDIPbEBIRWRv-431" value="" style="rounded=0;whiteSpace=wrap;html=1;fillColor=#f5f5f5;fontColor=#333333;strokeColor=#666666;direction=south;" vertex="1" parent="1">
          <mxGeometry x="70" y="110" width="10" height="20" as="geometry" />
        </mxCell>
        <mxCell id="iaEKwFwizDIPbEBIRWRv-432" value="" style="rounded=0;whiteSpace=wrap;html=1;fillColor=#f5f5f5;fontColor=#333333;strokeColor=#666666;direction=south;" vertex="1" parent="1">
          <mxGeometry x="70" y="130" width="10" height="20" as="geometry" />
        </mxCell>
        <mxCell id="iaEKwFwizDIPbEBIRWRv-433" value="" style="rounded=0;whiteSpace=wrap;html=1;fillColor=#f5f5f5;fontColor=#333333;strokeColor=#666666;direction=south;" vertex="1" parent="1">
          <mxGeometry x="70" y="150" width="10" height="20" as="geometry" />
        </mxCell>
        <mxCell id="iaEKwFwizDIPbEBIRWRv-434" value="" style="rounded=0;whiteSpace=wrap;html=1;fillColor=#f5f5f5;fontColor=#333333;strokeColor=#666666;direction=south;" vertex="1" parent="1">
          <mxGeometry x="70" y="170" width="10" height="20" as="geometry" />
        </mxCell>
        <mxCell id="iaEKwFwizDIPbEBIRWRv-435" value="" style="rounded=0;whiteSpace=wrap;html=1;fillColor=#f5f5f5;fontColor=#333333;strokeColor=#666666;direction=south;" vertex="1" parent="1">
          <mxGeometry x="70" y="190" width="10" height="20" as="geometry" />
        </mxCell>
        <mxCell id="iaEKwFwizDIPbEBIRWRv-436" value="" style="rounded=0;whiteSpace=wrap;html=1;fillColor=#f5f5f5;fontColor=#333333;strokeColor=#666666;direction=south;" vertex="1" parent="1">
          <mxGeometry x="70" y="210" width="10" height="20" as="geometry" />
        </mxCell>
        <mxCell id="iaEKwFwizDIPbEBIRWRv-437" value="" style="rounded=0;whiteSpace=wrap;html=1;fillColor=#f5f5f5;fontColor=#333333;strokeColor=#666666;direction=south;" vertex="1" parent="1">
          <mxGeometry x="70" y="230" width="10" height="20" as="geometry" />
        </mxCell>
        <mxCell id="iaEKwFwizDIPbEBIRWRv-438" value="" style="rounded=0;whiteSpace=wrap;html=1;fillColor=#f5f5f5;fontColor=#333333;strokeColor=#666666;direction=south;" vertex="1" parent="1">
          <mxGeometry x="70" y="250" width="10" height="20" as="geometry" />
        </mxCell>
        <mxCell id="iaEKwFwizDIPbEBIRWRv-439" value="" style="rounded=0;whiteSpace=wrap;html=1;fillColor=#f5f5f5;fontColor=#333333;strokeColor=#666666;direction=south;" vertex="1" parent="1">
          <mxGeometry x="70" y="270" width="10" height="20" as="geometry" />
        </mxCell>
        <mxCell id="iaEKwFwizDIPbEBIRWRv-440" value="" style="rounded=0;whiteSpace=wrap;html=1;fillColor=#f5f5f5;fontColor=#333333;strokeColor=#666666;direction=south;" vertex="1" parent="1">
          <mxGeometry x="70" y="290" width="10" height="20" as="geometry" />
        </mxCell>
        <mxCell id="iaEKwFwizDIPbEBIRWRv-441" value="" style="rounded=0;whiteSpace=wrap;html=1;fillColor=#f5f5f5;fontColor=#333333;strokeColor=#666666;direction=south;" vertex="1" parent="1">
          <mxGeometry x="70" y="310" width="10" height="20" as="geometry" />
        </mxCell>
        <mxCell id="iaEKwFwizDIPbEBIRWRv-442" value="" style="rounded=0;whiteSpace=wrap;html=1;fillColor=#f5f5f5;fontColor=#333333;strokeColor=#666666;direction=south;" vertex="1" parent="1">
          <mxGeometry x="70" y="330" width="10" height="20" as="geometry" />
        </mxCell>
        <mxCell id="iaEKwFwizDIPbEBIRWRv-443" value="" style="rounded=0;whiteSpace=wrap;html=1;fillColor=#f5f5f5;fontColor=#333333;strokeColor=#666666;direction=south;" vertex="1" parent="1">
          <mxGeometry x="70" y="350" width="10" height="20" as="geometry" />
        </mxCell>
        <mxCell id="iaEKwFwizDIPbEBIRWRv-444" value="" style="rounded=0;whiteSpace=wrap;html=1;fillColor=#f5f5f5;fontColor=#333333;strokeColor=#666666;direction=south;" vertex="1" parent="1">
          <mxGeometry x="70" y="370" width="10" height="20" as="geometry" />
        </mxCell>
        <mxCell id="iaEKwFwizDIPbEBIRWRv-445" value="" style="rounded=0;whiteSpace=wrap;html=1;fillColor=#f5f5f5;fontColor=#333333;strokeColor=#666666;direction=south;" vertex="1" parent="1">
          <mxGeometry x="70" y="390" width="10" height="20" as="geometry" />
        </mxCell>
        <mxCell id="iaEKwFwizDIPbEBIRWRv-446" value="" style="rounded=0;whiteSpace=wrap;html=1;fillColor=#f5f5f5;fontColor=#333333;strokeColor=#666666;direction=south;" vertex="1" parent="1">
          <mxGeometry x="70" y="410" width="10" height="20" as="geometry" />
        </mxCell>
        <mxCell id="iaEKwFwizDIPbEBIRWRv-449" value="" style="rounded=0;whiteSpace=wrap;html=1;fillColor=#f5f5f5;fontColor=#333333;strokeColor=#666666;direction=south;" vertex="1" parent="1">
          <mxGeometry x="80" y="10" width="10" height="20" as="geometry" />
        </mxCell>
        <mxCell id="iaEKwFwizDIPbEBIRWRv-450" value="" style="rounded=0;whiteSpace=wrap;html=1;fillColor=#f5f5f5;fontColor=#333333;strokeColor=#666666;direction=south;" vertex="1" parent="1">
          <mxGeometry x="80" y="30" width="10" height="20" as="geometry" />
        </mxCell>
        <mxCell id="iaEKwFwizDIPbEBIRWRv-451" value="" style="rounded=0;whiteSpace=wrap;html=1;fillColor=#f5f5f5;fontColor=#333333;strokeColor=#666666;direction=south;" vertex="1" parent="1">
          <mxGeometry x="80" y="50" width="10" height="20" as="geometry" />
        </mxCell>
        <mxCell id="iaEKwFwizDIPbEBIRWRv-452" value="" style="rounded=0;whiteSpace=wrap;html=1;fillColor=#f5f5f5;fontColor=#333333;strokeColor=#666666;direction=south;" vertex="1" parent="1">
          <mxGeometry x="80" y="70" width="10" height="20" as="geometry" />
        </mxCell>
        <mxCell id="iaEKwFwizDIPbEBIRWRv-453" value="" style="rounded=0;whiteSpace=wrap;html=1;fillColor=#f5f5f5;fontColor=#333333;strokeColor=#666666;direction=south;" vertex="1" parent="1">
          <mxGeometry x="80" y="90" width="10" height="20" as="geometry" />
        </mxCell>
        <mxCell id="iaEKwFwizDIPbEBIRWRv-454" value="" style="rounded=0;whiteSpace=wrap;html=1;fillColor=#f5f5f5;fontColor=#333333;strokeColor=#666666;direction=south;" vertex="1" parent="1">
          <mxGeometry x="80" y="110" width="10" height="20" as="geometry" />
        </mxCell>
        <mxCell id="iaEKwFwizDIPbEBIRWRv-455" value="" style="rounded=0;whiteSpace=wrap;html=1;fillColor=#f5f5f5;fontColor=#333333;strokeColor=#666666;direction=south;" vertex="1" parent="1">
          <mxGeometry x="80" y="130" width="10" height="20" as="geometry" />
        </mxCell>
        <mxCell id="iaEKwFwizDIPbEBIRWRv-456" value="" style="rounded=0;whiteSpace=wrap;html=1;fillColor=#f5f5f5;fontColor=#333333;strokeColor=#666666;direction=south;" vertex="1" parent="1">
          <mxGeometry x="80" y="150" width="10" height="20" as="geometry" />
        </mxCell>
        <mxCell id="iaEKwFwizDIPbEBIRWRv-457" value="" style="rounded=0;whiteSpace=wrap;html=1;fillColor=#f5f5f5;fontColor=#333333;strokeColor=#666666;direction=south;" vertex="1" parent="1">
          <mxGeometry x="80" y="170" width="10" height="20" as="geometry" />
        </mxCell>
        <mxCell id="iaEKwFwizDIPbEBIRWRv-458" value="" style="rounded=0;whiteSpace=wrap;html=1;fillColor=#f5f5f5;fontColor=#333333;strokeColor=#666666;direction=south;" vertex="1" parent="1">
          <mxGeometry x="80" y="190" width="10" height="20" as="geometry" />
        </mxCell>
        <mxCell id="iaEKwFwizDIPbEBIRWRv-459" value="" style="rounded=0;whiteSpace=wrap;html=1;fillColor=#f5f5f5;fontColor=#333333;strokeColor=#666666;direction=south;" vertex="1" parent="1">
          <mxGeometry x="80" y="210" width="10" height="20" as="geometry" />
        </mxCell>
        <mxCell id="iaEKwFwizDIPbEBIRWRv-460" value="" style="rounded=0;whiteSpace=wrap;html=1;fillColor=#f5f5f5;fontColor=#333333;strokeColor=#666666;direction=south;" vertex="1" parent="1">
          <mxGeometry x="80" y="230" width="10" height="20" as="geometry" />
        </mxCell>
        <mxCell id="iaEKwFwizDIPbEBIRWRv-461" value="" style="rounded=0;whiteSpace=wrap;html=1;fillColor=#f5f5f5;fontColor=#333333;strokeColor=#666666;direction=south;" vertex="1" parent="1">
          <mxGeometry x="80" y="250" width="10" height="20" as="geometry" />
        </mxCell>
        <mxCell id="iaEKwFwizDIPbEBIRWRv-462" value="" style="rounded=0;whiteSpace=wrap;html=1;fillColor=#f5f5f5;fontColor=#333333;strokeColor=#666666;direction=south;" vertex="1" parent="1">
          <mxGeometry x="80" y="270" width="10" height="20" as="geometry" />
        </mxCell>
        <mxCell id="iaEKwFwizDIPbEBIRWRv-463" value="" style="rounded=0;whiteSpace=wrap;html=1;fillColor=#f5f5f5;fontColor=#333333;strokeColor=#666666;direction=south;" vertex="1" parent="1">
          <mxGeometry x="80" y="290" width="10" height="20" as="geometry" />
        </mxCell>
        <mxCell id="iaEKwFwizDIPbEBIRWRv-464" value="" style="rounded=0;whiteSpace=wrap;html=1;fillColor=#f5f5f5;fontColor=#333333;strokeColor=#666666;direction=south;" vertex="1" parent="1">
          <mxGeometry x="80" y="310" width="10" height="20" as="geometry" />
        </mxCell>
        <mxCell id="iaEKwFwizDIPbEBIRWRv-465" value="" style="rounded=0;whiteSpace=wrap;html=1;fillColor=#f5f5f5;fontColor=#333333;strokeColor=#666666;direction=south;" vertex="1" parent="1">
          <mxGeometry x="80" y="330" width="10" height="20" as="geometry" />
        </mxCell>
        <mxCell id="iaEKwFwizDIPbEBIRWRv-466" value="" style="rounded=0;whiteSpace=wrap;html=1;fillColor=#f5f5f5;fontColor=#333333;strokeColor=#666666;direction=south;" vertex="1" parent="1">
          <mxGeometry x="80" y="350" width="10" height="20" as="geometry" />
        </mxCell>
        <mxCell id="iaEKwFwizDIPbEBIRWRv-467" value="" style="rounded=0;whiteSpace=wrap;html=1;fillColor=#f5f5f5;fontColor=#333333;strokeColor=#666666;direction=south;" vertex="1" parent="1">
          <mxGeometry x="80" y="370" width="10" height="20" as="geometry" />
        </mxCell>
        <mxCell id="iaEKwFwizDIPbEBIRWRv-468" value="" style="rounded=0;whiteSpace=wrap;html=1;fillColor=#f5f5f5;fontColor=#333333;strokeColor=#666666;direction=south;" vertex="1" parent="1">
          <mxGeometry x="80" y="390" width="10" height="20" as="geometry" />
        </mxCell>
        <mxCell id="iaEKwFwizDIPbEBIRWRv-469" value="" style="rounded=0;whiteSpace=wrap;html=1;fillColor=#f5f5f5;fontColor=#333333;strokeColor=#666666;direction=south;" vertex="1" parent="1">
          <mxGeometry x="80" y="410" width="10" height="20" as="geometry" />
        </mxCell>
        <mxCell id="iaEKwFwizDIPbEBIRWRv-472" value="" style="rounded=0;whiteSpace=wrap;html=1;fillColor=#f5f5f5;fontColor=#333333;strokeColor=#666666;direction=south;" vertex="1" parent="1">
          <mxGeometry x="90" y="10" width="10" height="20" as="geometry" />
        </mxCell>
        <mxCell id="iaEKwFwizDIPbEBIRWRv-473" value="" style="rounded=0;whiteSpace=wrap;html=1;fillColor=#f5f5f5;fontColor=#333333;strokeColor=#666666;direction=south;" vertex="1" parent="1">
          <mxGeometry x="90" y="30" width="10" height="20" as="geometry" />
        </mxCell>
        <mxCell id="iaEKwFwizDIPbEBIRWRv-474" value="" style="rounded=0;whiteSpace=wrap;html=1;fillColor=#f5f5f5;fontColor=#333333;strokeColor=#666666;direction=south;" vertex="1" parent="1">
          <mxGeometry x="90" y="50" width="10" height="20" as="geometry" />
        </mxCell>
        <mxCell id="iaEKwFwizDIPbEBIRWRv-475" value="" style="rounded=0;whiteSpace=wrap;html=1;fillColor=#f5f5f5;fontColor=#333333;strokeColor=#666666;direction=south;" vertex="1" parent="1">
          <mxGeometry x="90" y="70" width="10" height="20" as="geometry" />
        </mxCell>
        <mxCell id="iaEKwFwizDIPbEBIRWRv-476" value="" style="rounded=0;whiteSpace=wrap;html=1;fillColor=#f5f5f5;fontColor=#333333;strokeColor=#666666;direction=south;" vertex="1" parent="1">
          <mxGeometry x="90" y="90" width="10" height="20" as="geometry" />
        </mxCell>
        <mxCell id="iaEKwFwizDIPbEBIRWRv-477" value="" style="rounded=0;whiteSpace=wrap;html=1;fillColor=#f5f5f5;fontColor=#333333;strokeColor=#666666;direction=south;" vertex="1" parent="1">
          <mxGeometry x="90" y="110" width="10" height="20" as="geometry" />
        </mxCell>
        <mxCell id="iaEKwFwizDIPbEBIRWRv-478" value="" style="rounded=0;whiteSpace=wrap;html=1;fillColor=#f5f5f5;fontColor=#333333;strokeColor=#666666;direction=south;" vertex="1" parent="1">
          <mxGeometry x="90" y="130" width="10" height="20" as="geometry" />
        </mxCell>
        <mxCell id="iaEKwFwizDIPbEBIRWRv-479" value="" style="rounded=0;whiteSpace=wrap;html=1;fillColor=#f5f5f5;fontColor=#333333;strokeColor=#666666;direction=south;" vertex="1" parent="1">
          <mxGeometry x="90" y="150" width="10" height="20" as="geometry" />
        </mxCell>
        <mxCell id="iaEKwFwizDIPbEBIRWRv-480" value="" style="rounded=0;whiteSpace=wrap;html=1;fillColor=#f5f5f5;fontColor=#333333;strokeColor=#666666;direction=south;" vertex="1" parent="1">
          <mxGeometry x="90" y="170" width="10" height="20" as="geometry" />
        </mxCell>
        <mxCell id="iaEKwFwizDIPbEBIRWRv-481" value="" style="rounded=0;whiteSpace=wrap;html=1;fillColor=#f5f5f5;fontColor=#333333;strokeColor=#666666;direction=south;" vertex="1" parent="1">
          <mxGeometry x="90" y="190" width="10" height="20" as="geometry" />
        </mxCell>
        <mxCell id="iaEKwFwizDIPbEBIRWRv-482" value="" style="rounded=0;whiteSpace=wrap;html=1;fillColor=#f5f5f5;fontColor=#333333;strokeColor=#666666;direction=south;" vertex="1" parent="1">
          <mxGeometry x="90" y="210" width="10" height="20" as="geometry" />
        </mxCell>
        <mxCell id="iaEKwFwizDIPbEBIRWRv-483" value="" style="rounded=0;whiteSpace=wrap;html=1;fillColor=#f5f5f5;fontColor=#333333;strokeColor=#666666;direction=south;" vertex="1" parent="1">
          <mxGeometry x="90" y="230" width="10" height="20" as="geometry" />
        </mxCell>
        <mxCell id="iaEKwFwizDIPbEBIRWRv-484" value="" style="rounded=0;whiteSpace=wrap;html=1;fillColor=#f5f5f5;fontColor=#333333;strokeColor=#666666;direction=south;" vertex="1" parent="1">
          <mxGeometry x="90" y="250" width="10" height="20" as="geometry" />
        </mxCell>
        <mxCell id="iaEKwFwizDIPbEBIRWRv-485" value="" style="rounded=0;whiteSpace=wrap;html=1;fillColor=#f5f5f5;fontColor=#333333;strokeColor=#666666;direction=south;" vertex="1" parent="1">
          <mxGeometry x="90" y="270" width="10" height="20" as="geometry" />
        </mxCell>
        <mxCell id="iaEKwFwizDIPbEBIRWRv-486" value="" style="rounded=0;whiteSpace=wrap;html=1;fillColor=#f5f5f5;fontColor=#333333;strokeColor=#666666;direction=south;" vertex="1" parent="1">
          <mxGeometry x="90" y="290" width="10" height="20" as="geometry" />
        </mxCell>
        <mxCell id="iaEKwFwizDIPbEBIRWRv-487" value="" style="rounded=0;whiteSpace=wrap;html=1;fillColor=#f5f5f5;fontColor=#333333;strokeColor=#666666;direction=south;" vertex="1" parent="1">
          <mxGeometry x="90" y="310" width="10" height="20" as="geometry" />
        </mxCell>
        <mxCell id="iaEKwFwizDIPbEBIRWRv-488" value="" style="rounded=0;whiteSpace=wrap;html=1;fillColor=#f5f5f5;fontColor=#333333;strokeColor=#666666;direction=south;" vertex="1" parent="1">
          <mxGeometry x="90" y="330" width="10" height="20" as="geometry" />
        </mxCell>
        <mxCell id="iaEKwFwizDIPbEBIRWRv-489" value="" style="rounded=0;whiteSpace=wrap;html=1;fillColor=#f5f5f5;fontColor=#333333;strokeColor=#666666;direction=south;" vertex="1" parent="1">
          <mxGeometry x="90" y="350" width="10" height="20" as="geometry" />
        </mxCell>
        <mxCell id="iaEKwFwizDIPbEBIRWRv-490" value="" style="rounded=0;whiteSpace=wrap;html=1;fillColor=#f5f5f5;fontColor=#333333;strokeColor=#666666;direction=south;" vertex="1" parent="1">
          <mxGeometry x="90" y="370" width="10" height="20" as="geometry" />
        </mxCell>
        <mxCell id="iaEKwFwizDIPbEBIRWRv-491" value="" style="rounded=0;whiteSpace=wrap;html=1;fillColor=#f5f5f5;fontColor=#333333;strokeColor=#666666;direction=south;" vertex="1" parent="1">
          <mxGeometry x="90" y="390" width="10" height="20" as="geometry" />
        </mxCell>
        <mxCell id="iaEKwFwizDIPbEBIRWRv-492" value="" style="rounded=0;whiteSpace=wrap;html=1;fillColor=#f5f5f5;fontColor=#333333;strokeColor=#666666;direction=south;" vertex="1" parent="1">
          <mxGeometry x="90" y="410" width="10" height="20" as="geometry" />
        </mxCell>
        <mxCell id="iaEKwFwizDIPbEBIRWRv-495" value="" style="rounded=0;whiteSpace=wrap;html=1;fillColor=#f5f5f5;fontColor=#333333;strokeColor=#666666;direction=south;" vertex="1" parent="1">
          <mxGeometry x="100" y="10" width="10" height="20" as="geometry" />
        </mxCell>
        <mxCell id="iaEKwFwizDIPbEBIRWRv-496" value="" style="rounded=0;whiteSpace=wrap;html=1;fillColor=#f5f5f5;fontColor=#333333;strokeColor=#666666;direction=south;" vertex="1" parent="1">
          <mxGeometry x="100" y="30" width="10" height="20" as="geometry" />
        </mxCell>
        <mxCell id="iaEKwFwizDIPbEBIRWRv-497" value="" style="rounded=0;whiteSpace=wrap;html=1;fillColor=#f5f5f5;fontColor=#333333;strokeColor=#666666;direction=south;" vertex="1" parent="1">
          <mxGeometry x="100" y="50" width="10" height="20" as="geometry" />
        </mxCell>
        <mxCell id="iaEKwFwizDIPbEBIRWRv-498" value="" style="rounded=0;whiteSpace=wrap;html=1;fillColor=#f5f5f5;fontColor=#333333;strokeColor=#666666;direction=south;" vertex="1" parent="1">
          <mxGeometry x="100" y="70" width="10" height="20" as="geometry" />
        </mxCell>
        <mxCell id="iaEKwFwizDIPbEBIRWRv-499" value="" style="rounded=0;whiteSpace=wrap;html=1;fillColor=#f5f5f5;fontColor=#333333;strokeColor=#666666;direction=south;" vertex="1" parent="1">
          <mxGeometry x="100" y="90" width="10" height="20" as="geometry" />
        </mxCell>
        <mxCell id="iaEKwFwizDIPbEBIRWRv-500" value="" style="rounded=0;whiteSpace=wrap;html=1;fillColor=#f5f5f5;fontColor=#333333;strokeColor=#666666;direction=south;" vertex="1" parent="1">
          <mxGeometry x="100" y="110" width="10" height="20" as="geometry" />
        </mxCell>
        <mxCell id="iaEKwFwizDIPbEBIRWRv-501" value="" style="rounded=0;whiteSpace=wrap;html=1;fillColor=#f5f5f5;fontColor=#333333;strokeColor=#666666;direction=south;" vertex="1" parent="1">
          <mxGeometry x="100" y="130" width="10" height="20" as="geometry" />
        </mxCell>
        <mxCell id="iaEKwFwizDIPbEBIRWRv-502" value="" style="rounded=0;whiteSpace=wrap;html=1;fillColor=#f5f5f5;fontColor=#333333;strokeColor=#666666;direction=south;" vertex="1" parent="1">
          <mxGeometry x="100" y="150" width="10" height="20" as="geometry" />
        </mxCell>
        <mxCell id="iaEKwFwizDIPbEBIRWRv-503" value="" style="rounded=0;whiteSpace=wrap;html=1;fillColor=#f5f5f5;fontColor=#333333;strokeColor=#666666;direction=south;" vertex="1" parent="1">
          <mxGeometry x="100" y="170" width="10" height="20" as="geometry" />
        </mxCell>
        <mxCell id="iaEKwFwizDIPbEBIRWRv-504" value="" style="rounded=0;whiteSpace=wrap;html=1;fillColor=#f5f5f5;fontColor=#333333;strokeColor=#666666;direction=south;" vertex="1" parent="1">
          <mxGeometry x="100" y="190" width="10" height="20" as="geometry" />
        </mxCell>
        <mxCell id="iaEKwFwizDIPbEBIRWRv-505" value="" style="rounded=0;whiteSpace=wrap;html=1;fillColor=#f5f5f5;fontColor=#333333;strokeColor=#666666;direction=south;" vertex="1" parent="1">
          <mxGeometry x="100" y="210" width="10" height="20" as="geometry" />
        </mxCell>
        <mxCell id="iaEKwFwizDIPbEBIRWRv-506" value="" style="rounded=0;whiteSpace=wrap;html=1;fillColor=#f5f5f5;fontColor=#333333;strokeColor=#666666;direction=south;" vertex="1" parent="1">
          <mxGeometry x="100" y="230" width="10" height="20" as="geometry" />
        </mxCell>
        <mxCell id="iaEKwFwizDIPbEBIRWRv-507" value="" style="rounded=0;whiteSpace=wrap;html=1;fillColor=#f5f5f5;fontColor=#333333;strokeColor=#666666;direction=south;" vertex="1" parent="1">
          <mxGeometry x="100" y="250" width="10" height="20" as="geometry" />
        </mxCell>
        <mxCell id="iaEKwFwizDIPbEBIRWRv-508" value="" style="rounded=0;whiteSpace=wrap;html=1;fillColor=#f5f5f5;fontColor=#333333;strokeColor=#666666;direction=south;" vertex="1" parent="1">
          <mxGeometry x="100" y="270" width="10" height="20" as="geometry" />
        </mxCell>
        <mxCell id="iaEKwFwizDIPbEBIRWRv-509" value="" style="rounded=0;whiteSpace=wrap;html=1;fillColor=#f5f5f5;fontColor=#333333;strokeColor=#666666;direction=south;" vertex="1" parent="1">
          <mxGeometry x="100" y="290" width="10" height="20" as="geometry" />
        </mxCell>
        <mxCell id="iaEKwFwizDIPbEBIRWRv-510" value="" style="rounded=0;whiteSpace=wrap;html=1;fillColor=#f5f5f5;fontColor=#333333;strokeColor=#666666;direction=south;" vertex="1" parent="1">
          <mxGeometry x="100" y="310" width="10" height="20" as="geometry" />
        </mxCell>
        <mxCell id="iaEKwFwizDIPbEBIRWRv-511" value="" style="rounded=0;whiteSpace=wrap;html=1;fillColor=#f5f5f5;fontColor=#333333;strokeColor=#666666;direction=south;" vertex="1" parent="1">
          <mxGeometry x="100" y="330" width="10" height="20" as="geometry" />
        </mxCell>
        <mxCell id="iaEKwFwizDIPbEBIRWRv-512" value="" style="rounded=0;whiteSpace=wrap;html=1;fillColor=#f5f5f5;fontColor=#333333;strokeColor=#666666;direction=south;" vertex="1" parent="1">
          <mxGeometry x="100" y="350" width="10" height="20" as="geometry" />
        </mxCell>
        <mxCell id="iaEKwFwizDIPbEBIRWRv-513" value="" style="rounded=0;whiteSpace=wrap;html=1;fillColor=#f5f5f5;fontColor=#333333;strokeColor=#666666;direction=south;" vertex="1" parent="1">
          <mxGeometry x="100" y="370" width="10" height="20" as="geometry" />
        </mxCell>
        <mxCell id="iaEKwFwizDIPbEBIRWRv-514" value="" style="rounded=0;whiteSpace=wrap;html=1;fillColor=#f5f5f5;fontColor=#333333;strokeColor=#666666;direction=south;" vertex="1" parent="1">
          <mxGeometry x="100" y="390" width="10" height="20" as="geometry" />
        </mxCell>
        <mxCell id="iaEKwFwizDIPbEBIRWRv-515" value="" style="rounded=0;whiteSpace=wrap;html=1;fillColor=#f5f5f5;fontColor=#333333;strokeColor=#666666;direction=south;" vertex="1" parent="1">
          <mxGeometry x="100" y="410" width="10" height="20" as="geometry" />
        </mxCell>
        <mxCell id="iaEKwFwizDIPbEBIRWRv-518" value="" style="rounded=0;whiteSpace=wrap;html=1;fillColor=#f5f5f5;fontColor=#333333;strokeColor=#666666;direction=south;" vertex="1" parent="1">
          <mxGeometry x="110" y="10" width="10" height="20" as="geometry" />
        </mxCell>
        <mxCell id="iaEKwFwizDIPbEBIRWRv-519" value="" style="rounded=0;whiteSpace=wrap;html=1;fillColor=#f5f5f5;fontColor=#333333;strokeColor=#666666;direction=south;" vertex="1" parent="1">
          <mxGeometry x="110" y="30" width="10" height="20" as="geometry" />
        </mxCell>
        <mxCell id="iaEKwFwizDIPbEBIRWRv-520" value="" style="rounded=0;whiteSpace=wrap;html=1;fillColor=#f5f5f5;fontColor=#333333;strokeColor=#666666;direction=south;" vertex="1" parent="1">
          <mxGeometry x="110" y="50" width="10" height="20" as="geometry" />
        </mxCell>
        <mxCell id="iaEKwFwizDIPbEBIRWRv-521" value="" style="rounded=0;whiteSpace=wrap;html=1;fillColor=#f5f5f5;fontColor=#333333;strokeColor=#666666;direction=south;" vertex="1" parent="1">
          <mxGeometry x="110" y="70" width="10" height="20" as="geometry" />
        </mxCell>
        <mxCell id="iaEKwFwizDIPbEBIRWRv-522" value="" style="rounded=0;whiteSpace=wrap;html=1;fillColor=#f5f5f5;fontColor=#333333;strokeColor=#666666;direction=south;" vertex="1" parent="1">
          <mxGeometry x="110" y="90" width="10" height="20" as="geometry" />
        </mxCell>
        <mxCell id="iaEKwFwizDIPbEBIRWRv-523" value="" style="rounded=0;whiteSpace=wrap;html=1;fillColor=#f5f5f5;fontColor=#333333;strokeColor=#666666;direction=south;" vertex="1" parent="1">
          <mxGeometry x="110" y="110" width="10" height="20" as="geometry" />
        </mxCell>
        <mxCell id="iaEKwFwizDIPbEBIRWRv-524" value="" style="rounded=0;whiteSpace=wrap;html=1;fillColor=#f5f5f5;fontColor=#333333;strokeColor=#666666;direction=south;" vertex="1" parent="1">
          <mxGeometry x="110" y="130" width="10" height="20" as="geometry" />
        </mxCell>
        <mxCell id="iaEKwFwizDIPbEBIRWRv-525" value="" style="rounded=0;whiteSpace=wrap;html=1;fillColor=#f5f5f5;fontColor=#333333;strokeColor=#666666;direction=south;" vertex="1" parent="1">
          <mxGeometry x="110" y="150" width="10" height="20" as="geometry" />
        </mxCell>
        <mxCell id="iaEKwFwizDIPbEBIRWRv-526" value="" style="rounded=0;whiteSpace=wrap;html=1;fillColor=#f5f5f5;fontColor=#333333;strokeColor=#666666;direction=south;" vertex="1" parent="1">
          <mxGeometry x="110" y="170" width="10" height="20" as="geometry" />
        </mxCell>
        <mxCell id="iaEKwFwizDIPbEBIRWRv-527" value="" style="rounded=0;whiteSpace=wrap;html=1;fillColor=#f5f5f5;fontColor=#333333;strokeColor=#666666;direction=south;" vertex="1" parent="1">
          <mxGeometry x="110" y="190" width="10" height="20" as="geometry" />
        </mxCell>
        <mxCell id="iaEKwFwizDIPbEBIRWRv-528" value="" style="rounded=0;whiteSpace=wrap;html=1;fillColor=#f5f5f5;fontColor=#333333;strokeColor=#666666;direction=south;" vertex="1" parent="1">
          <mxGeometry x="110" y="210" width="10" height="20" as="geometry" />
        </mxCell>
        <mxCell id="iaEKwFwizDIPbEBIRWRv-529" value="" style="rounded=0;whiteSpace=wrap;html=1;fillColor=#f5f5f5;fontColor=#333333;strokeColor=#666666;direction=south;" vertex="1" parent="1">
          <mxGeometry x="110" y="230" width="10" height="20" as="geometry" />
        </mxCell>
        <mxCell id="iaEKwFwizDIPbEBIRWRv-530" value="" style="rounded=0;whiteSpace=wrap;html=1;fillColor=#f5f5f5;fontColor=#333333;strokeColor=#666666;direction=south;" vertex="1" parent="1">
          <mxGeometry x="110" y="250" width="10" height="20" as="geometry" />
        </mxCell>
        <mxCell id="iaEKwFwizDIPbEBIRWRv-531" value="" style="rounded=0;whiteSpace=wrap;html=1;fillColor=#f5f5f5;fontColor=#333333;strokeColor=#666666;direction=south;" vertex="1" parent="1">
          <mxGeometry x="110" y="270" width="10" height="20" as="geometry" />
        </mxCell>
        <mxCell id="iaEKwFwizDIPbEBIRWRv-532" value="" style="rounded=0;whiteSpace=wrap;html=1;fillColor=#f5f5f5;fontColor=#333333;strokeColor=#666666;direction=south;" vertex="1" parent="1">
          <mxGeometry x="110" y="290" width="10" height="20" as="geometry" />
        </mxCell>
        <mxCell id="iaEKwFwizDIPbEBIRWRv-533" value="" style="rounded=0;whiteSpace=wrap;html=1;fillColor=#f5f5f5;fontColor=#333333;strokeColor=#666666;direction=south;" vertex="1" parent="1">
          <mxGeometry x="110" y="310" width="10" height="20" as="geometry" />
        </mxCell>
        <mxCell id="iaEKwFwizDIPbEBIRWRv-534" value="" style="rounded=0;whiteSpace=wrap;html=1;fillColor=#f5f5f5;fontColor=#333333;strokeColor=#666666;direction=south;" vertex="1" parent="1">
          <mxGeometry x="110" y="330" width="10" height="20" as="geometry" />
        </mxCell>
        <mxCell id="iaEKwFwizDIPbEBIRWRv-535" value="" style="rounded=0;whiteSpace=wrap;html=1;fillColor=#f5f5f5;fontColor=#333333;strokeColor=#666666;direction=south;" vertex="1" parent="1">
          <mxGeometry x="110" y="350" width="10" height="20" as="geometry" />
        </mxCell>
        <mxCell id="iaEKwFwizDIPbEBIRWRv-536" value="" style="rounded=0;whiteSpace=wrap;html=1;fillColor=#f5f5f5;fontColor=#333333;strokeColor=#666666;direction=south;" vertex="1" parent="1">
          <mxGeometry x="110" y="370" width="10" height="20" as="geometry" />
        </mxCell>
        <mxCell id="iaEKwFwizDIPbEBIRWRv-537" value="" style="rounded=0;whiteSpace=wrap;html=1;fillColor=#f5f5f5;fontColor=#333333;strokeColor=#666666;direction=south;" vertex="1" parent="1">
          <mxGeometry x="110" y="390" width="10" height="20" as="geometry" />
        </mxCell>
        <mxCell id="iaEKwFwizDIPbEBIRWRv-538" value="" style="rounded=0;whiteSpace=wrap;html=1;fillColor=#f5f5f5;fontColor=#333333;strokeColor=#666666;direction=south;" vertex="1" parent="1">
          <mxGeometry x="110" y="410" width="10" height="20" as="geometry" />
        </mxCell>
        <mxCell id="iaEKwFwizDIPbEBIRWRv-687" value="" style="group" vertex="1" connectable="0" parent="1">
          <mxGeometry x="20" y="30" width="90" height="10" as="geometry" />
        </mxCell>
        <mxCell id="iaEKwFwizDIPbEBIRWRv-686" value="" style="whiteSpace=wrap;html=1;aspect=fixed;fillColor=#f5f5f5;fontColor=#333333;strokeColor=#666666;" vertex="1" parent="iaEKwFwizDIPbEBIRWRv-687">
          <mxGeometry x="40" width="10" height="10" as="geometry" />
        </mxCell>
        <mxCell id="iaEKwFwizDIPbEBIRWRv-675" value="" style="rounded=0;whiteSpace=wrap;html=1;fillColor=#f5f5f5;fontColor=#333333;strokeColor=#666666;" vertex="1" parent="iaEKwFwizDIPbEBIRWRv-687">
          <mxGeometry width="20" height="10" as="geometry" />
        </mxCell>
        <mxCell id="iaEKwFwizDIPbEBIRWRv-676" value="" style="rounded=0;whiteSpace=wrap;html=1;fillColor=#f5f5f5;fontColor=#333333;strokeColor=#666666;" vertex="1" parent="iaEKwFwizDIPbEBIRWRv-687">
          <mxGeometry x="20" width="20" height="10" as="geometry" />
        </mxCell>
        <mxCell id="iaEKwFwizDIPbEBIRWRv-677" value="" style="rounded=0;whiteSpace=wrap;html=1;fillColor=#f5f5f5;fontColor=#333333;strokeColor=#666666;" vertex="1" parent="iaEKwFwizDIPbEBIRWRv-687">
          <mxGeometry x="50" width="20" height="10" as="geometry" />
        </mxCell>
        <mxCell id="iaEKwFwizDIPbEBIRWRv-678" value="" style="rounded=0;whiteSpace=wrap;html=1;fillColor=#f5f5f5;fontColor=#333333;strokeColor=#666666;" vertex="1" parent="iaEKwFwizDIPbEBIRWRv-687">
          <mxGeometry x="70" width="20" height="10" as="geometry" />
        </mxCell>
        <mxCell id="iaEKwFwizDIPbEBIRWRv-2" value="" style="rounded=0;whiteSpace=wrap;html=1;fillColor=#dae8fc;strokeColor=#6c8ebf;" vertex="1" parent="1">
          <mxGeometry x="20" y="40" width="90" height="300" as="geometry" />
        </mxCell>
        <mxCell id="iaEKwFwizDIPbEBIRWRv-688" value="" style="group" vertex="1" connectable="0" parent="1">
          <mxGeometry x="20" y="340" width="90" height="10" as="geometry" />
        </mxCell>
        <mxCell id="iaEKwFwizDIPbEBIRWRv-689" value="" style="whiteSpace=wrap;html=1;aspect=fixed;fillColor=#f5f5f5;fontColor=#333333;strokeColor=#666666;" vertex="1" parent="iaEKwFwizDIPbEBIRWRv-688">
          <mxGeometry x="40" width="10" height="10" as="geometry" />
        </mxCell>
        <mxCell id="iaEKwFwizDIPbEBIRWRv-690" value="" style="rounded=0;whiteSpace=wrap;html=1;fillColor=#f5f5f5;fontColor=#333333;strokeColor=#666666;" vertex="1" parent="iaEKwFwizDIPbEBIRWRv-688">
          <mxGeometry width="20" height="10" as="geometry" />
        </mxCell>
        <mxCell id="iaEKwFwizDIPbEBIRWRv-691" value="" style="rounded=0;whiteSpace=wrap;html=1;fillColor=#f5f5f5;fontColor=#333333;strokeColor=#666666;" vertex="1" parent="iaEKwFwizDIPbEBIRWRv-688">
          <mxGeometry x="20" width="20" height="10" as="geometry" />
        </mxCell>
        <mxCell id="iaEKwFwizDIPbEBIRWRv-692" value="" style="rounded=0;whiteSpace=wrap;html=1;fillColor=#f5f5f5;fontColor=#333333;strokeColor=#666666;" vertex="1" parent="iaEKwFwizDIPbEBIRWRv-688">
          <mxGeometry x="50" width="20" height="10" as="geometry" />
        </mxCell>
        <mxCell id="iaEKwFwizDIPbEBIRWRv-693" value="" style="rounded=0;whiteSpace=wrap;html=1;fillColor=#f5f5f5;fontColor=#333333;strokeColor=#666666;" vertex="1" parent="iaEKwFwizDIPbEBIRWRv-688">
          <mxGeometry x="70" width="20" height="10" as="geometry" />
        </mxCell>
        <mxCell id="iaEKwFwizDIPbEBIRWRv-541" value="" style="rounded=0;whiteSpace=wrap;html=1;fillColor=#f5f5f5;fontColor=#333333;strokeColor=#666666;direction=south;" vertex="1" parent="1">
          <mxGeometry x="120" y="10" width="10" height="20" as="geometry" />
        </mxCell>
        <mxCell id="iaEKwFwizDIPbEBIRWRv-542" value="" style="rounded=0;whiteSpace=wrap;html=1;fillColor=#f5f5f5;fontColor=#333333;strokeColor=#666666;direction=south;" vertex="1" parent="1">
          <mxGeometry x="120" y="30" width="10" height="20" as="geometry" />
        </mxCell>
        <mxCell id="iaEKwFwizDIPbEBIRWRv-543" value="" style="rounded=0;whiteSpace=wrap;html=1;fillColor=#f5f5f5;fontColor=#333333;strokeColor=#666666;direction=south;" vertex="1" parent="1">
          <mxGeometry x="120" y="50" width="10" height="20" as="geometry" />
        </mxCell>
        <mxCell id="iaEKwFwizDIPbEBIRWRv-544" value="" style="rounded=0;whiteSpace=wrap;html=1;fillColor=#f5f5f5;fontColor=#333333;strokeColor=#666666;direction=south;" vertex="1" parent="1">
          <mxGeometry x="120" y="70" width="10" height="20" as="geometry" />
        </mxCell>
        <mxCell id="iaEKwFwizDIPbEBIRWRv-545" value="" style="rounded=0;whiteSpace=wrap;html=1;fillColor=#f5f5f5;fontColor=#333333;strokeColor=#666666;direction=south;" vertex="1" parent="1">
          <mxGeometry x="120" y="90" width="10" height="20" as="geometry" />
        </mxCell>
        <mxCell id="iaEKwFwizDIPbEBIRWRv-546" value="" style="rounded=0;whiteSpace=wrap;html=1;fillColor=#f5f5f5;fontColor=#333333;strokeColor=#666666;direction=south;" vertex="1" parent="1">
          <mxGeometry x="120" y="110" width="10" height="20" as="geometry" />
        </mxCell>
        <mxCell id="iaEKwFwizDIPbEBIRWRv-547" value="" style="rounded=0;whiteSpace=wrap;html=1;fillColor=#f5f5f5;fontColor=#333333;strokeColor=#666666;direction=south;" vertex="1" parent="1">
          <mxGeometry x="120" y="130" width="10" height="20" as="geometry" />
        </mxCell>
        <mxCell id="iaEKwFwizDIPbEBIRWRv-548" value="" style="rounded=0;whiteSpace=wrap;html=1;fillColor=#f5f5f5;fontColor=#333333;strokeColor=#666666;direction=south;" vertex="1" parent="1">
          <mxGeometry x="120" y="150" width="10" height="20" as="geometry" />
        </mxCell>
        <mxCell id="iaEKwFwizDIPbEBIRWRv-549" value="" style="rounded=0;whiteSpace=wrap;html=1;fillColor=#f5f5f5;fontColor=#333333;strokeColor=#666666;direction=south;" vertex="1" parent="1">
          <mxGeometry x="120" y="170" width="10" height="20" as="geometry" />
        </mxCell>
        <mxCell id="iaEKwFwizDIPbEBIRWRv-550" value="" style="rounded=0;whiteSpace=wrap;html=1;fillColor=#f5f5f5;fontColor=#333333;strokeColor=#666666;direction=south;" vertex="1" parent="1">
          <mxGeometry x="120" y="190" width="10" height="20" as="geometry" />
        </mxCell>
        <mxCell id="iaEKwFwizDIPbEBIRWRv-551" value="" style="rounded=0;whiteSpace=wrap;html=1;fillColor=#f5f5f5;fontColor=#333333;strokeColor=#666666;direction=south;" vertex="1" parent="1">
          <mxGeometry x="120" y="210" width="10" height="20" as="geometry" />
        </mxCell>
        <mxCell id="iaEKwFwizDIPbEBIRWRv-552" value="" style="rounded=0;whiteSpace=wrap;html=1;fillColor=#f5f5f5;fontColor=#333333;strokeColor=#666666;direction=south;" vertex="1" parent="1">
          <mxGeometry x="120" y="230" width="10" height="20" as="geometry" />
        </mxCell>
        <mxCell id="iaEKwFwizDIPbEBIRWRv-553" value="" style="rounded=0;whiteSpace=wrap;html=1;fillColor=#f5f5f5;fontColor=#333333;strokeColor=#666666;direction=south;" vertex="1" parent="1">
          <mxGeometry x="120" y="250" width="10" height="20" as="geometry" />
        </mxCell>
        <mxCell id="iaEKwFwizDIPbEBIRWRv-554" value="" style="rounded=0;whiteSpace=wrap;html=1;fillColor=#f5f5f5;fontColor=#333333;strokeColor=#666666;direction=south;" vertex="1" parent="1">
          <mxGeometry x="120" y="270" width="10" height="20" as="geometry" />
        </mxCell>
        <mxCell id="iaEKwFwizDIPbEBIRWRv-555" value="" style="rounded=0;whiteSpace=wrap;html=1;fillColor=#f5f5f5;fontColor=#333333;strokeColor=#666666;direction=south;" vertex="1" parent="1">
          <mxGeometry x="120" y="290" width="10" height="20" as="geometry" />
        </mxCell>
        <mxCell id="iaEKwFwizDIPbEBIRWRv-556" value="" style="rounded=0;whiteSpace=wrap;html=1;fillColor=#f5f5f5;fontColor=#333333;strokeColor=#666666;direction=south;" vertex="1" parent="1">
          <mxGeometry x="120" y="310" width="10" height="20" as="geometry" />
        </mxCell>
        <mxCell id="iaEKwFwizDIPbEBIRWRv-557" value="" style="rounded=0;whiteSpace=wrap;html=1;fillColor=#f5f5f5;fontColor=#333333;strokeColor=#666666;direction=south;" vertex="1" parent="1">
          <mxGeometry x="120" y="330" width="10" height="20" as="geometry" />
        </mxCell>
        <mxCell id="iaEKwFwizDIPbEBIRWRv-558" value="" style="rounded=0;whiteSpace=wrap;html=1;fillColor=#f5f5f5;fontColor=#333333;strokeColor=#666666;direction=south;" vertex="1" parent="1">
          <mxGeometry x="120" y="350" width="10" height="20" as="geometry" />
        </mxCell>
        <mxCell id="iaEKwFwizDIPbEBIRWRv-559" value="" style="rounded=0;whiteSpace=wrap;html=1;fillColor=#f5f5f5;fontColor=#333333;strokeColor=#666666;direction=south;" vertex="1" parent="1">
          <mxGeometry x="120" y="370" width="10" height="20" as="geometry" />
        </mxCell>
        <mxCell id="iaEKwFwizDIPbEBIRWRv-560" value="" style="rounded=0;whiteSpace=wrap;html=1;fillColor=#f5f5f5;fontColor=#333333;strokeColor=#666666;direction=south;" vertex="1" parent="1">
          <mxGeometry x="120" y="390" width="10" height="20" as="geometry" />
        </mxCell>
        <mxCell id="iaEKwFwizDIPbEBIRWRv-561" value="" style="rounded=0;whiteSpace=wrap;html=1;fillColor=#f5f5f5;fontColor=#333333;strokeColor=#666666;direction=south;" vertex="1" parent="1">
          <mxGeometry x="120" y="410" width="10" height="20" as="geometry" />
        </mxCell>
        <mxCell id="iaEKwFwizDIPbEBIRWRv-564" value="" style="rounded=0;whiteSpace=wrap;html=1;fillColor=#f5f5f5;fontColor=#333333;strokeColor=#666666;direction=south;" vertex="1" parent="1">
          <mxGeometry x="130" y="10" width="10" height="20" as="geometry" />
        </mxCell>
        <mxCell id="iaEKwFwizDIPbEBIRWRv-565" value="" style="rounded=0;whiteSpace=wrap;html=1;fillColor=#f5f5f5;fontColor=#333333;strokeColor=#666666;direction=south;" vertex="1" parent="1">
          <mxGeometry x="130" y="30" width="10" height="20" as="geometry" />
        </mxCell>
        <mxCell id="iaEKwFwizDIPbEBIRWRv-566" value="" style="rounded=0;whiteSpace=wrap;html=1;fillColor=#f5f5f5;fontColor=#333333;strokeColor=#666666;direction=south;" vertex="1" parent="1">
          <mxGeometry x="130" y="50" width="10" height="20" as="geometry" />
        </mxCell>
        <mxCell id="iaEKwFwizDIPbEBIRWRv-567" value="" style="rounded=0;whiteSpace=wrap;html=1;fillColor=#f5f5f5;fontColor=#333333;strokeColor=#666666;direction=south;" vertex="1" parent="1">
          <mxGeometry x="130" y="70" width="10" height="20" as="geometry" />
        </mxCell>
        <mxCell id="iaEKwFwizDIPbEBIRWRv-568" value="" style="rounded=0;whiteSpace=wrap;html=1;fillColor=#f5f5f5;fontColor=#333333;strokeColor=#666666;direction=south;" vertex="1" parent="1">
          <mxGeometry x="130" y="90" width="10" height="20" as="geometry" />
        </mxCell>
        <mxCell id="iaEKwFwizDIPbEBIRWRv-569" value="" style="rounded=0;whiteSpace=wrap;html=1;fillColor=#f5f5f5;fontColor=#333333;strokeColor=#666666;direction=south;" vertex="1" parent="1">
          <mxGeometry x="130" y="110" width="10" height="20" as="geometry" />
        </mxCell>
        <mxCell id="iaEKwFwizDIPbEBIRWRv-570" value="" style="rounded=0;whiteSpace=wrap;html=1;fillColor=#f5f5f5;fontColor=#333333;strokeColor=#666666;direction=south;" vertex="1" parent="1">
          <mxGeometry x="130" y="130" width="10" height="20" as="geometry" />
        </mxCell>
        <mxCell id="iaEKwFwizDIPbEBIRWRv-571" value="" style="rounded=0;whiteSpace=wrap;html=1;fillColor=#f5f5f5;fontColor=#333333;strokeColor=#666666;direction=south;" vertex="1" parent="1">
          <mxGeometry x="130" y="150" width="10" height="20" as="geometry" />
        </mxCell>
        <mxCell id="iaEKwFwizDIPbEBIRWRv-572" value="" style="rounded=0;whiteSpace=wrap;html=1;fillColor=#f5f5f5;fontColor=#333333;strokeColor=#666666;direction=south;" vertex="1" parent="1">
          <mxGeometry x="130" y="170" width="10" height="20" as="geometry" />
        </mxCell>
        <mxCell id="iaEKwFwizDIPbEBIRWRv-573" value="" style="rounded=0;whiteSpace=wrap;html=1;fillColor=#f5f5f5;fontColor=#333333;strokeColor=#666666;direction=south;" vertex="1" parent="1">
          <mxGeometry x="130" y="190" width="10" height="20" as="geometry" />
        </mxCell>
        <mxCell id="iaEKwFwizDIPbEBIRWRv-574" value="" style="rounded=0;whiteSpace=wrap;html=1;fillColor=#f5f5f5;fontColor=#333333;strokeColor=#666666;direction=south;" vertex="1" parent="1">
          <mxGeometry x="130" y="210" width="10" height="20" as="geometry" />
        </mxCell>
        <mxCell id="iaEKwFwizDIPbEBIRWRv-575" value="" style="rounded=0;whiteSpace=wrap;html=1;fillColor=#f5f5f5;fontColor=#333333;strokeColor=#666666;direction=south;" vertex="1" parent="1">
          <mxGeometry x="130" y="230" width="10" height="20" as="geometry" />
        </mxCell>
        <mxCell id="iaEKwFwizDIPbEBIRWRv-576" value="" style="rounded=0;whiteSpace=wrap;html=1;fillColor=#f5f5f5;fontColor=#333333;strokeColor=#666666;direction=south;" vertex="1" parent="1">
          <mxGeometry x="130" y="250" width="10" height="20" as="geometry" />
        </mxCell>
        <mxCell id="iaEKwFwizDIPbEBIRWRv-577" value="" style="rounded=0;whiteSpace=wrap;html=1;fillColor=#f5f5f5;fontColor=#333333;strokeColor=#666666;direction=south;" vertex="1" parent="1">
          <mxGeometry x="130" y="270" width="10" height="20" as="geometry" />
        </mxCell>
        <mxCell id="iaEKwFwizDIPbEBIRWRv-578" value="" style="rounded=0;whiteSpace=wrap;html=1;fillColor=#f5f5f5;fontColor=#333333;strokeColor=#666666;direction=south;" vertex="1" parent="1">
          <mxGeometry x="130" y="290" width="10" height="20" as="geometry" />
        </mxCell>
        <mxCell id="iaEKwFwizDIPbEBIRWRv-579" value="" style="rounded=0;whiteSpace=wrap;html=1;fillColor=#f5f5f5;fontColor=#333333;strokeColor=#666666;direction=south;" vertex="1" parent="1">
          <mxGeometry x="130" y="310" width="10" height="20" as="geometry" />
        </mxCell>
        <mxCell id="iaEKwFwizDIPbEBIRWRv-580" value="" style="rounded=0;whiteSpace=wrap;html=1;fillColor=#f5f5f5;fontColor=#333333;strokeColor=#666666;direction=south;" vertex="1" parent="1">
          <mxGeometry x="130" y="330" width="10" height="20" as="geometry" />
        </mxCell>
        <mxCell id="iaEKwFwizDIPbEBIRWRv-581" value="" style="rounded=0;whiteSpace=wrap;html=1;fillColor=#f5f5f5;fontColor=#333333;strokeColor=#666666;direction=south;" vertex="1" parent="1">
          <mxGeometry x="130" y="350" width="10" height="20" as="geometry" />
        </mxCell>
        <mxCell id="iaEKwFwizDIPbEBIRWRv-582" value="" style="rounded=0;whiteSpace=wrap;html=1;fillColor=#f5f5f5;fontColor=#333333;strokeColor=#666666;direction=south;" vertex="1" parent="1">
          <mxGeometry x="130" y="370" width="10" height="20" as="geometry" />
        </mxCell>
        <mxCell id="iaEKwFwizDIPbEBIRWRv-583" value="" style="rounded=0;whiteSpace=wrap;html=1;fillColor=#f5f5f5;fontColor=#333333;strokeColor=#666666;direction=south;" vertex="1" parent="1">
          <mxGeometry x="130" y="390" width="10" height="20" as="geometry" />
        </mxCell>
        <mxCell id="iaEKwFwizDIPbEBIRWRv-584" value="" style="rounded=0;whiteSpace=wrap;html=1;fillColor=#f5f5f5;fontColor=#333333;strokeColor=#666666;direction=south;" vertex="1" parent="1">
          <mxGeometry x="130" y="410" width="10" height="20" as="geometry" />
        </mxCell>
        <mxCell id="iaEKwFwizDIPbEBIRWRv-587" value="" style="rounded=0;whiteSpace=wrap;html=1;fillColor=#f5f5f5;fontColor=#333333;strokeColor=#666666;direction=south;" vertex="1" parent="1">
          <mxGeometry x="140" y="10" width="10" height="20" as="geometry" />
        </mxCell>
        <mxCell id="iaEKwFwizDIPbEBIRWRv-588" value="" style="rounded=0;whiteSpace=wrap;html=1;fillColor=#f5f5f5;fontColor=#333333;strokeColor=#666666;direction=south;" vertex="1" parent="1">
          <mxGeometry x="140" y="30" width="10" height="20" as="geometry" />
        </mxCell>
        <mxCell id="iaEKwFwizDIPbEBIRWRv-589" value="" style="rounded=0;whiteSpace=wrap;html=1;fillColor=#f5f5f5;fontColor=#333333;strokeColor=#666666;direction=south;" vertex="1" parent="1">
          <mxGeometry x="140" y="50" width="10" height="20" as="geometry" />
        </mxCell>
        <mxCell id="iaEKwFwizDIPbEBIRWRv-590" value="" style="rounded=0;whiteSpace=wrap;html=1;fillColor=#f5f5f5;fontColor=#333333;strokeColor=#666666;direction=south;" vertex="1" parent="1">
          <mxGeometry x="140" y="70" width="10" height="20" as="geometry" />
        </mxCell>
        <mxCell id="iaEKwFwizDIPbEBIRWRv-591" value="" style="rounded=0;whiteSpace=wrap;html=1;fillColor=#f5f5f5;fontColor=#333333;strokeColor=#666666;direction=south;" vertex="1" parent="1">
          <mxGeometry x="140" y="90" width="10" height="20" as="geometry" />
        </mxCell>
        <mxCell id="iaEKwFwizDIPbEBIRWRv-592" value="" style="rounded=0;whiteSpace=wrap;html=1;fillColor=#f5f5f5;fontColor=#333333;strokeColor=#666666;direction=south;" vertex="1" parent="1">
          <mxGeometry x="140" y="110" width="10" height="20" as="geometry" />
        </mxCell>
        <mxCell id="iaEKwFwizDIPbEBIRWRv-593" value="" style="rounded=0;whiteSpace=wrap;html=1;fillColor=#f5f5f5;fontColor=#333333;strokeColor=#666666;direction=south;" vertex="1" parent="1">
          <mxGeometry x="140" y="130" width="10" height="20" as="geometry" />
        </mxCell>
        <mxCell id="iaEKwFwizDIPbEBIRWRv-594" value="" style="rounded=0;whiteSpace=wrap;html=1;fillColor=#f5f5f5;fontColor=#333333;strokeColor=#666666;direction=south;" vertex="1" parent="1">
          <mxGeometry x="140" y="150" width="10" height="20" as="geometry" />
        </mxCell>
        <mxCell id="iaEKwFwizDIPbEBIRWRv-595" value="" style="rounded=0;whiteSpace=wrap;html=1;fillColor=#f5f5f5;fontColor=#333333;strokeColor=#666666;direction=south;" vertex="1" parent="1">
          <mxGeometry x="140" y="170" width="10" height="20" as="geometry" />
        </mxCell>
        <mxCell id="iaEKwFwizDIPbEBIRWRv-596" value="" style="rounded=0;whiteSpace=wrap;html=1;fillColor=#f5f5f5;fontColor=#333333;strokeColor=#666666;direction=south;" vertex="1" parent="1">
          <mxGeometry x="140" y="190" width="10" height="20" as="geometry" />
        </mxCell>
        <mxCell id="iaEKwFwizDIPbEBIRWRv-597" value="" style="rounded=0;whiteSpace=wrap;html=1;fillColor=#f5f5f5;fontColor=#333333;strokeColor=#666666;direction=south;" vertex="1" parent="1">
          <mxGeometry x="140" y="210" width="10" height="20" as="geometry" />
        </mxCell>
        <mxCell id="iaEKwFwizDIPbEBIRWRv-598" value="" style="rounded=0;whiteSpace=wrap;html=1;fillColor=#f5f5f5;fontColor=#333333;strokeColor=#666666;direction=south;" vertex="1" parent="1">
          <mxGeometry x="140" y="230" width="10" height="20" as="geometry" />
        </mxCell>
        <mxCell id="iaEKwFwizDIPbEBIRWRv-599" value="" style="rounded=0;whiteSpace=wrap;html=1;fillColor=#f5f5f5;fontColor=#333333;strokeColor=#666666;direction=south;" vertex="1" parent="1">
          <mxGeometry x="140" y="250" width="10" height="20" as="geometry" />
        </mxCell>
        <mxCell id="iaEKwFwizDIPbEBIRWRv-600" value="" style="rounded=0;whiteSpace=wrap;html=1;fillColor=#f5f5f5;fontColor=#333333;strokeColor=#666666;direction=south;" vertex="1" parent="1">
          <mxGeometry x="140" y="270" width="10" height="20" as="geometry" />
        </mxCell>
        <mxCell id="iaEKwFwizDIPbEBIRWRv-601" value="" style="rounded=0;whiteSpace=wrap;html=1;fillColor=#f5f5f5;fontColor=#333333;strokeColor=#666666;direction=south;" vertex="1" parent="1">
          <mxGeometry x="140" y="290" width="10" height="20" as="geometry" />
        </mxCell>
        <mxCell id="iaEKwFwizDIPbEBIRWRv-602" value="" style="rounded=0;whiteSpace=wrap;html=1;fillColor=#f5f5f5;fontColor=#333333;strokeColor=#666666;direction=south;" vertex="1" parent="1">
          <mxGeometry x="140" y="310" width="10" height="20" as="geometry" />
        </mxCell>
        <mxCell id="iaEKwFwizDIPbEBIRWRv-603" value="" style="rounded=0;whiteSpace=wrap;html=1;fillColor=#f5f5f5;fontColor=#333333;strokeColor=#666666;direction=south;" vertex="1" parent="1">
          <mxGeometry x="140" y="330" width="10" height="20" as="geometry" />
        </mxCell>
        <mxCell id="iaEKwFwizDIPbEBIRWRv-604" value="" style="rounded=0;whiteSpace=wrap;html=1;fillColor=#f5f5f5;fontColor=#333333;strokeColor=#666666;direction=south;" vertex="1" parent="1">
          <mxGeometry x="140" y="350" width="10" height="20" as="geometry" />
        </mxCell>
        <mxCell id="iaEKwFwizDIPbEBIRWRv-605" value="" style="rounded=0;whiteSpace=wrap;html=1;fillColor=#f5f5f5;fontColor=#333333;strokeColor=#666666;direction=south;" vertex="1" parent="1">
          <mxGeometry x="140" y="370" width="10" height="20" as="geometry" />
        </mxCell>
        <mxCell id="iaEKwFwizDIPbEBIRWRv-606" value="" style="rounded=0;whiteSpace=wrap;html=1;fillColor=#f5f5f5;fontColor=#333333;strokeColor=#666666;direction=south;" vertex="1" parent="1">
          <mxGeometry x="140" y="390" width="10" height="20" as="geometry" />
        </mxCell>
        <mxCell id="iaEKwFwizDIPbEBIRWRv-607" value="" style="rounded=0;whiteSpace=wrap;html=1;fillColor=#f5f5f5;fontColor=#333333;strokeColor=#666666;direction=south;" vertex="1" parent="1">
          <mxGeometry x="140" y="410" width="10" height="20" as="geometry" />
        </mxCell>
        <mxCell id="iaEKwFwizDIPbEBIRWRv-610" value="" style="rounded=0;whiteSpace=wrap;html=1;fillColor=#f5f5f5;fontColor=#333333;strokeColor=#666666;direction=south;" vertex="1" parent="1">
          <mxGeometry x="150" y="10" width="10" height="20" as="geometry" />
        </mxCell>
        <mxCell id="iaEKwFwizDIPbEBIRWRv-611" value="" style="rounded=0;whiteSpace=wrap;html=1;fillColor=#f5f5f5;fontColor=#333333;strokeColor=#666666;direction=south;" vertex="1" parent="1">
          <mxGeometry x="150" y="30" width="10" height="20" as="geometry" />
        </mxCell>
        <mxCell id="iaEKwFwizDIPbEBIRWRv-612" value="" style="rounded=0;whiteSpace=wrap;html=1;fillColor=#f5f5f5;fontColor=#333333;strokeColor=#666666;direction=south;" vertex="1" parent="1">
          <mxGeometry x="150" y="50" width="10" height="20" as="geometry" />
        </mxCell>
        <mxCell id="iaEKwFwizDIPbEBIRWRv-613" value="" style="rounded=0;whiteSpace=wrap;html=1;fillColor=#f5f5f5;fontColor=#333333;strokeColor=#666666;direction=south;" vertex="1" parent="1">
          <mxGeometry x="150" y="70" width="10" height="20" as="geometry" />
        </mxCell>
        <mxCell id="iaEKwFwizDIPbEBIRWRv-614" value="" style="rounded=0;whiteSpace=wrap;html=1;fillColor=#f5f5f5;fontColor=#333333;strokeColor=#666666;direction=south;" vertex="1" parent="1">
          <mxGeometry x="150" y="90" width="10" height="20" as="geometry" />
        </mxCell>
        <mxCell id="iaEKwFwizDIPbEBIRWRv-615" value="" style="rounded=0;whiteSpace=wrap;html=1;fillColor=#f5f5f5;fontColor=#333333;strokeColor=#666666;direction=south;" vertex="1" parent="1">
          <mxGeometry x="150" y="110" width="10" height="20" as="geometry" />
        </mxCell>
        <mxCell id="iaEKwFwizDIPbEBIRWRv-616" value="" style="rounded=0;whiteSpace=wrap;html=1;fillColor=#f5f5f5;fontColor=#333333;strokeColor=#666666;direction=south;" vertex="1" parent="1">
          <mxGeometry x="150" y="130" width="10" height="20" as="geometry" />
        </mxCell>
        <mxCell id="iaEKwFwizDIPbEBIRWRv-617" value="" style="rounded=0;whiteSpace=wrap;html=1;fillColor=#f5f5f5;fontColor=#333333;strokeColor=#666666;direction=south;" vertex="1" parent="1">
          <mxGeometry x="150" y="150" width="10" height="20" as="geometry" />
        </mxCell>
        <mxCell id="iaEKwFwizDIPbEBIRWRv-618" value="" style="rounded=0;whiteSpace=wrap;html=1;fillColor=#f5f5f5;fontColor=#333333;strokeColor=#666666;direction=south;" vertex="1" parent="1">
          <mxGeometry x="150" y="170" width="10" height="20" as="geometry" />
        </mxCell>
        <mxCell id="iaEKwFwizDIPbEBIRWRv-619" value="" style="rounded=0;whiteSpace=wrap;html=1;fillColor=#f5f5f5;fontColor=#333333;strokeColor=#666666;direction=south;" vertex="1" parent="1">
          <mxGeometry x="150" y="190" width="10" height="20" as="geometry" />
        </mxCell>
        <mxCell id="iaEKwFwizDIPbEBIRWRv-620" value="" style="rounded=0;whiteSpace=wrap;html=1;fillColor=#f5f5f5;fontColor=#333333;strokeColor=#666666;direction=south;" vertex="1" parent="1">
          <mxGeometry x="150" y="210" width="10" height="20" as="geometry" />
        </mxCell>
        <mxCell id="iaEKwFwizDIPbEBIRWRv-621" value="" style="rounded=0;whiteSpace=wrap;html=1;fillColor=#f5f5f5;fontColor=#333333;strokeColor=#666666;direction=south;" vertex="1" parent="1">
          <mxGeometry x="150" y="230" width="10" height="20" as="geometry" />
        </mxCell>
        <mxCell id="iaEKwFwizDIPbEBIRWRv-622" value="" style="rounded=0;whiteSpace=wrap;html=1;fillColor=#f5f5f5;fontColor=#333333;strokeColor=#666666;direction=south;" vertex="1" parent="1">
          <mxGeometry x="150" y="250" width="10" height="20" as="geometry" />
        </mxCell>
        <mxCell id="iaEKwFwizDIPbEBIRWRv-623" value="" style="rounded=0;whiteSpace=wrap;html=1;fillColor=#f5f5f5;fontColor=#333333;strokeColor=#666666;direction=south;" vertex="1" parent="1">
          <mxGeometry x="150" y="270" width="10" height="20" as="geometry" />
        </mxCell>
        <mxCell id="iaEKwFwizDIPbEBIRWRv-624" value="" style="rounded=0;whiteSpace=wrap;html=1;fillColor=#f5f5f5;fontColor=#333333;strokeColor=#666666;direction=south;" vertex="1" parent="1">
          <mxGeometry x="150" y="290" width="10" height="20" as="geometry" />
        </mxCell>
        <mxCell id="iaEKwFwizDIPbEBIRWRv-625" value="" style="rounded=0;whiteSpace=wrap;html=1;fillColor=#f5f5f5;fontColor=#333333;strokeColor=#666666;direction=south;" vertex="1" parent="1">
          <mxGeometry x="150" y="310" width="10" height="20" as="geometry" />
        </mxCell>
        <mxCell id="iaEKwFwizDIPbEBIRWRv-626" value="" style="rounded=0;whiteSpace=wrap;html=1;fillColor=#f5f5f5;fontColor=#333333;strokeColor=#666666;direction=south;" vertex="1" parent="1">
          <mxGeometry x="150" y="330" width="10" height="20" as="geometry" />
        </mxCell>
        <mxCell id="iaEKwFwizDIPbEBIRWRv-627" value="" style="rounded=0;whiteSpace=wrap;html=1;fillColor=#f5f5f5;fontColor=#333333;strokeColor=#666666;direction=south;" vertex="1" parent="1">
          <mxGeometry x="150" y="350" width="10" height="20" as="geometry" />
        </mxCell>
        <mxCell id="iaEKwFwizDIPbEBIRWRv-628" value="" style="rounded=0;whiteSpace=wrap;html=1;fillColor=#f5f5f5;fontColor=#333333;strokeColor=#666666;direction=south;" vertex="1" parent="1">
          <mxGeometry x="150" y="370" width="10" height="20" as="geometry" />
        </mxCell>
        <mxCell id="iaEKwFwizDIPbEBIRWRv-629" value="" style="rounded=0;whiteSpace=wrap;html=1;fillColor=#f5f5f5;fontColor=#333333;strokeColor=#666666;direction=south;" vertex="1" parent="1">
          <mxGeometry x="150" y="390" width="10" height="20" as="geometry" />
        </mxCell>
        <mxCell id="iaEKwFwizDIPbEBIRWRv-630" value="" style="rounded=0;whiteSpace=wrap;html=1;fillColor=#f5f5f5;fontColor=#333333;strokeColor=#666666;direction=south;" vertex="1" parent="1">
          <mxGeometry x="150" y="410" width="10" height="20" as="geometry" />
        </mxCell>
        <mxCell id="iaEKwFwizDIPbEBIRWRv-263" value="" style="rounded=0;whiteSpace=wrap;html=1;fillColor=#000000;strokeColor=none;" vertex="1" parent="1">
          <mxGeometry x="132.5" y="60" width="27.5" height="135" as="geometry" />
        </mxCell>
        <mxCell id="iaEKwFwizDIPbEBIRWRv-785" value="" style="group" vertex="1" connectable="0" parent="1">
          <mxGeometry x="140" y="67.5" width="50" height="120" as="geometry" />
        </mxCell>
        <mxCell id="iaEKwFwizDIPbEBIRWRv-777" value="" style="group" vertex="1" connectable="0" parent="iaEKwFwizDIPbEBIRWRv-785">
          <mxGeometry width="10" height="120" as="geometry" />
        </mxCell>
        <mxCell id="iaEKwFwizDIPbEBIRWRv-771" value="" style="rounded=0;whiteSpace=wrap;html=1;fillColor=#ffe6cc;strokeColor=#d79b00;" vertex="1" parent="iaEKwFwizDIPbEBIRWRv-777">
          <mxGeometry width="10" height="20" as="geometry" />
        </mxCell>
        <mxCell id="iaEKwFwizDIPbEBIRWRv-772" value="" style="rounded=0;whiteSpace=wrap;html=1;fillColor=#ffe6cc;strokeColor=#d79b00;" vertex="1" parent="iaEKwFwizDIPbEBIRWRv-777">
          <mxGeometry y="20" width="10" height="20" as="geometry" />
        </mxCell>
        <mxCell id="iaEKwFwizDIPbEBIRWRv-773" value="" style="rounded=0;whiteSpace=wrap;html=1;fillColor=#ffe6cc;strokeColor=#d79b00;" vertex="1" parent="iaEKwFwizDIPbEBIRWRv-777">
          <mxGeometry y="40" width="10" height="20" as="geometry" />
        </mxCell>
        <mxCell id="iaEKwFwizDIPbEBIRWRv-774" value="" style="rounded=0;whiteSpace=wrap;html=1;fillColor=#ffe6cc;strokeColor=#d79b00;" vertex="1" parent="iaEKwFwizDIPbEBIRWRv-777">
          <mxGeometry y="60" width="10" height="20" as="geometry" />
        </mxCell>
        <mxCell id="iaEKwFwizDIPbEBIRWRv-775" value="" style="rounded=0;whiteSpace=wrap;html=1;fillColor=#ffe6cc;strokeColor=#d79b00;" vertex="1" parent="iaEKwFwizDIPbEBIRWRv-777">
          <mxGeometry y="80" width="10" height="20" as="geometry" />
        </mxCell>
        <mxCell id="iaEKwFwizDIPbEBIRWRv-776" value="" style="rounded=0;whiteSpace=wrap;html=1;fillColor=#ffe6cc;strokeColor=#d79b00;" vertex="1" parent="iaEKwFwizDIPbEBIRWRv-777">
          <mxGeometry y="100" width="10" height="20" as="geometry" />
        </mxCell>
        <mxCell id="iaEKwFwizDIPbEBIRWRv-780" value="" style="group" vertex="1" connectable="0" parent="iaEKwFwizDIPbEBIRWRv-785">
          <mxGeometry x="10" width="40" height="10" as="geometry" />
        </mxCell>
        <mxCell id="iaEKwFwizDIPbEBIRWRv-778" value="" style="rounded=0;whiteSpace=wrap;html=1;fillColor=#ffe6cc;strokeColor=#d79b00;" vertex="1" parent="iaEKwFwizDIPbEBIRWRv-780">
          <mxGeometry width="20" height="10" as="geometry" />
        </mxCell>
        <mxCell id="iaEKwFwizDIPbEBIRWRv-779" value="" style="rounded=0;whiteSpace=wrap;html=1;fillColor=#ffe6cc;strokeColor=#d79b00;" vertex="1" parent="iaEKwFwizDIPbEBIRWRv-780">
          <mxGeometry x="20" width="20" height="10" as="geometry" />
        </mxCell>
        <mxCell id="iaEKwFwizDIPbEBIRWRv-781" value="" style="group" vertex="1" connectable="0" parent="iaEKwFwizDIPbEBIRWRv-785">
          <mxGeometry x="10" y="110" width="40" height="10" as="geometry" />
        </mxCell>
        <mxCell id="iaEKwFwizDIPbEBIRWRv-782" value="" style="rounded=0;whiteSpace=wrap;html=1;fillColor=#ffe6cc;strokeColor=#d79b00;" vertex="1" parent="iaEKwFwizDIPbEBIRWRv-781">
          <mxGeometry width="20" height="10" as="geometry" />
        </mxCell>
        <mxCell id="iaEKwFwizDIPbEBIRWRv-783" value="" style="rounded=0;whiteSpace=wrap;html=1;fillColor=#ffe6cc;strokeColor=#d79b00;" vertex="1" parent="iaEKwFwizDIPbEBIRWRv-781">
          <mxGeometry x="20" width="20" height="10" as="geometry" />
        </mxCell>
        <mxCell id="iaEKwFwizDIPbEBIRWRv-713" value="" style="rounded=0;whiteSpace=wrap;html=1;fillColor=#f8cecc;strokeColor=none;" vertex="1" parent="1">
          <mxGeometry x="150" y="77.5" width="40" height="100" as="geometry" />
        </mxCell>
      </root>
    </mxGraphModel>
  </diagram>
</mxfile>
